<svg xmlns="http://www.w3.org/2000/svg"><defs><font id="feathericon" horiz-adv-x="427"><font-face font-family="feathericon" font-weight="400" units-per-em="512" panose-1="2 0 5 3 0 0 0 0 0 0" ascent="448" descent="-64" bbox="-0.75 -21.25 427.25 405.25" underline-thickness="22.4" underline-position="-44.8" unicode-range="U+0020-F20A"/><glyph glyph-name="space" horiz-adv-x="200"/><glyph glyph-name="taxi" unicode="" horiz-adv-x="384" d="M113 340l15 44h128l15-44c40-7 70-42 70-84v-64c24 0 43-19 43-43V43c0-24-19-43-43-43s-42 19-42 43H85C85 19 67 0 43 0S0 19 0 43v106c0 24 19 43 43 43v64c0 42 30 77 70 84zm15-41c-24 0-43-19-43-43v-64h214v64c0 24-19 43-43 43H128zM64 107c12 0 21 9 21 21s-9 21-21 21-21-9-21-21 9-21 21-21zm256 0c12 0 21 9 21 21s-9 21-21 21-21-9-21-21 9-21 21-21z"/><glyph glyph-name="equalizer" unicode="" d="M238 299c9 25 33 42 61 42s51-17 60-42h46c12 0 22-10 22-22s-10-21-22-21h-46c-9-25-32-43-60-43s-52 18-61 43H21c-12 0-21 9-21 21s9 22 21 22h217zM68 128c9 25 32 43 60 43s51-18 60-43h217c12 0 22-9 22-21s-10-22-22-22H188c-9-25-32-42-60-42S77 60 68 85H21C9 85 0 95 0 107s9 21 21 21h47zm231 128c12 0 21 9 21 21s-9 22-21 22-22-10-22-22 10-21 22-21zM128 85c12 0 21 10 21 22s-9 21-21 21-21-9-21-21 9-22 21-22z"/><glyph glyph-name="code" unicode="" horiz-adv-x="384" d="M384 199L263 79l-30 30 91 90-91 91 30 30zm-324 0l91-90-30-30L0 199l121 121 30-30z"/><glyph glyph-name="shield" unicode="" horiz-adv-x="341" d="M43 90l128-64v337H43V90zm0 315h256c24 0 42-18 42-42V64L171-21 0 64v299c0 24 19 42 43 42z"/><glyph glyph-name="rocket" unicode="" horiz-adv-x="341" d="M213-21h-85c-17 0-35 24-49 58L21-21 0 0v85l51 51c-5 28-8 54-8 77 0 85 64 192 128 192s128-107 128-192c0-23-3-49-8-77l50-51V0l-21-21-58 58c-14-34-32-58-49-58zm-42 42h34c1 1 3 4 4 6 7 11 16 28 23 50 15 44 24 99 24 136 0 68-52 150-85 150s-86-82-86-150c0-37 10-92 25-136 7-22 15-39 22-50 1-2 3-5 4-6h35zm0 171c-24 0-43 19-43 43s19 42 43 42 42-18 42-42-18-43-42-43z"/><glyph glyph-name="trophy" unicode="" horiz-adv-x="341" d="M47 256h-4c-24 0-43 19-43 43s19 42 43 42v22c0 24 18 42 42 42h171c24 0 43-18 43-42v-22c24 0 42-18 42-42s-18-43-42-43h-5c-13-46-53-81-102-85V85h21c24 0 43-18 43-42V21h21c12 0 22-9 22-21s-10-21-22-21H64c-12 0-21 9-21 21s9 21 21 21h21v22c0 24 19 42 43 42h21v86c-49 4-89 39-102 85zm38 107v-75c0-41 34-75 75-75h21c41 0 75 34 75 75v75H85z"/><glyph glyph-name="drop-up" unicode="" horiz-adv-x="299" d="M149 277l150-170H0z"/><glyph glyph-name="money" unicode="" d="M43 341h341c24 0 43-18 43-42V85c0-24-19-42-43-42H43C19 43 0 61 0 85v214c0 24 19 42 43 42zm298-42H85c0-24-18-43-42-43V128c24 0 42-19 42-43h256c0 24 19 43 43 43v128c-24 0-43 19-43 43zm-213-43h43V128h-43v128zm128-85c12 0 21 9 21 21s-9 21-21 21-21-9-21-21 9-21 21-21zm0-43c-35 0-64 29-64 64s29 64 64 64 64-29 64-64-29-64-64-64z"/><glyph glyph-name="laptop" unicode="" d="M405 21H21C9 21 0 31 0 43s9 21 21 21h384c12 0 22-9 22-21s-10-22-22-22zM64 320V149h299v171H64zm0 43h299c24 0 42-19 42-43V149c0-24-18-42-42-42H64c-24 0-43 18-43 42v171c0 24 19 43 43 43z"/><glyph glyph-name="random" unicode="" horiz-adv-x="384" d="M21 85C9 85 0 95 0 107s9 21 21 21h43l64 64-64 64H21c-12 0-21 9-21 21s9 22 21 22h64l86-86 85 86h43v42l85-64-85-64v43h-22l-64-64 64-64h22v43l85-64-85-64v42h-43l-85 86-86-86H21z"/><glyph glyph-name="remove-cart" unicode="" horiz-adv-x="341" d="M85 107h171c12 0 21-10 21-22s-9-21-21-21H64c-12 0-21 9-21 21v278H21c-12 0-21 9-21 21s9 21 21 21h43c12 0 21-9 21-21V192h188l26 107v42c24 0 42-18 42-42 0-3 0-7-1-10l-24-106c-4-20-22-34-43-34H85v-42zM75-21C57-21 43-7 43 11s14 32 32 32 32-14 32-32-14-32-32-32zm192 0c-18 0-32 14-32 32s14 32 32 32 32-14 32-32-14-32-32-32zm-32 362c12 0 21-9 21-21s-9-21-21-21h-86c-12 0-21 9-21 21s9 21 21 21h86z"/><glyph glyph-name="disabled" unicode="" d="M213-21C95-21 0 74 0 192s95 213 213 213 214-95 214-213S331-21 213-21zM109 57c29-22 65-36 104-36 94 0 171 77 171 171 0 39-14 76-36 105zM79 87l239 240c-29 22-66 36-105 36-94 0-170-77-170-171 0-39 14-76 36-105z"/><glyph glyph-name="align-left" unicode="" horiz-adv-x="299" d="M43 0c0-12-10-21-22-21S0-12 0 0v384c0 12 9 21 21 21s22-9 22-21V0zm85 256c-24 0-43 19-43 43s19 42 43 42h128c24 0 43-18 43-42s-19-43-43-43H128zm0-64h85c24 0 43-19 43-43s-19-42-43-42h-85c-24 0-43 18-43 42s19 43 43 43z"/><glyph glyph-name="umbrella" unicode="" horiz-adv-x="384" d="M213 21c0-24-18-42-42-42s-43 18-43 42 19 43 43 43v107H0c0 99 75 179 171 190v23c0 12 9 21 21 21s21-9 21-21v-23c96-11 171-91 171-190H213V21zM49 213h286c-18 62-75 107-143 107S67 275 49 213z"/><glyph glyph-name="keyboard" unicode="" d="M0 277c0 24 19 43 43 43h341c24 0 43-19 43-43V107c0-24-19-43-43-43H43C19 64 0 83 0 107v170zm320-128v-42h64v42h-64zm-64 0v-42h43v42h-43zm-149 0v-42h128v42H107zm-64 0v-42h42v42H43zm298 64v-42h43v42h-43zm-64 0v-42h43v42h-43zm-64 0v-42h43v42h-43zm-64 0v-42h43v42h-43zm-106 0v-42h85v42H43zm256 64v-42h85v42h-85zm-64 0v-42h42v42h-42zm-64 0v-42h42v42h-42zm-64 0v-42h42v42h-42zm-64 0v-42h42v42H43z"/><glyph glyph-name="underline" unicode="" horiz-adv-x="256" d="M235 0H21C9 0 0 9 0 21s9 22 21 22h214c12 0 21-10 21-22s-9-21-21-21zm21 363V213c0-71-57-128-128-128S0 142 0 213v150c0 12 9 21 21 21s22-9 22-21V213c0-47 38-85 85-85s85 38 85 85v150c0 12 10 21 22 21s21-9 21-21z"/><glyph glyph-name="watch-alt" unicode="" horiz-adv-x="256" d="M192 320h21c24 0 43-19 43-43V107c0-24-19-43-43-43h-21V21c0-24-19-42-43-42h-42C83-21 64-3 64 21v43H43C19 64 0 83 0 107v170c0 24 19 43 43 43h21v43c0 24 19 42 43 42h42c24 0 43-18 43-42v-43zM43 277V107h170v170H43z"/><glyph glyph-name="video" unicode="" d="M277 242l121 46c11 4 23-2 27-13 1-2 2-4 2-7V116c0-12-10-21-22-21-3 0-5 0-7 1l-121 45v-34c0-24-18-43-42-43H43C19 64 0 83 0 107v170c0 24 19 43 43 43h192c24 0 42-19 42-43v-35z"/><glyph glyph-name="pause" unicode="" horiz-adv-x="213" d="M64 64c0-12-9-21-21-21H21C9 43 0 52 0 64v256c0 12 9 21 21 21h22c12 0 21-9 21-21V64zm149 0c0-12-9-21-21-21h-21c-12 0-22 9-22 21v256c0 12 10 21 22 21h21c12 0 21-9 21-21V64z"/><glyph glyph-name="layout" unicode="" d="M43 363h341c24 0 43-19 43-43V64c0-24-19-43-43-43H43C19 21 0 40 0 64v256c0 24 19 43 43 43zm0-43V213h85v107H43zm0-149V64h85v107H43zm128 149V64h213v256H171z"/><glyph glyph-name="notice-push" unicode="" horiz-adv-x="384" d="M299 213c-47 0-86 39-86 86s39 85 86 85 85-38 85-85-38-86-85-86zM43 341h128v-42H43V43h256v128h42V43c0-24-18-43-42-43H43C19 0 0 19 0 43v256c0 24 19 42 43 42z"/><glyph glyph-name="cage" unicode="" horiz-adv-x="341" d="M213 355c50-18 86-64 86-120V43h10c18 0 32-14 32-32s-14-32-32-32H32C14-21 0-7 0 11s14 32 32 32h11v192c0 56 35 102 85 120v8c0 24 19 42 43 42s42-18 42-42v-8zm43-142h-64v-64h64v64zm0 43c-8 31-33 56-64 64v-64h64zM85 213v-64h64v64H85zm0 43h64v64c-31-8-56-33-64-64zm171-149h-64V43h64v64zm-171 0V43h64v64H85z"/><glyph glyph-name="notice-off" unicode="" horiz-adv-x="341" d="M235 64V43c0-35-29-64-64-64s-64 29-64 64v21H21C9 64 0 73 0 85s9 22 21 22h22v128c0 13 1 25 5 37l-27 27c-12 12-12 30 0 42s31 12 43 0l235-234h21c12 0 21-10 21-22s-9-21-21-21h-85zm-64-43c12 0 21 10 21 22v21h-43V43c0-12 10-22 22-22zm-67 323c14 8 29 14 45 17v23c0 12 10 21 22 21s21-9 21-21v-23c61-10 107-63 107-126v-86z"/><glyph glyph-name="drop-right" unicode="" horiz-adv-x="171" d="M0 341l171-149L0 43v298z"/><glyph glyph-name="desktop" unicode="" d="M235 64h42c12 0 22-9 22-21s-10-22-22-22H149c-12 0-21 10-21 22s9 21 21 21h43v43H43c-24 0-43 18-43 42v171c0 24 19 43 43 43h341c24 0 43-19 43-43V149c0-24-19-42-43-42H235V64zM43 320V149h341v171H43z"/><glyph glyph-name="terminal" unicode="" d="M43 363h341c24 0 43-19 43-43V64c0-24-19-43-43-43H43C19 21 0 40 0 64v256c0 24 19 43 43 43zm0-43V64h341v256H43zm170-171h128v-42H213v42zm-21 52l-76-75-30 30 45 45-45 45 30 31z"/><glyph glyph-name="notice-active" unicode="" horiz-adv-x="341" d="M236 344c6 23 27 40 52 40 29 0 53-24 53-53 0-28-22-52-50-54 5-13 8-27 8-42V107h21c12 0 21-10 21-22s-9-21-21-21h-85V43c0-35-29-64-64-64s-64 29-64 64v21H21C9 64 0 73 0 85s9 22 21 22h22v128c0 63 45 116 106 126v23c0 12 10 21 22 21s21-9 21-21v-23c16-3 31-9 44-17zM171 21c12 0 21 10 21 22v21h-43V43c0-12 10-22 22-22zm-86 86h171v128c0 47-38 85-85 85s-86-38-86-85V107z"/><glyph glyph-name="octpus" unicode="" horiz-adv-x="341" d="M235 38V0c0-12-10-21-22-21s-21 9-21 21v43h-43V0c0-12-9-21-21-21s-21 9-21 21v38C96 28 80 21 64 21 29 21 0 50 0 85c0 12 9 22 21 22s22-10 22-22 9-21 21-21 21 9 21 21v48c-39 27-64 72-64 123 0 82 68 149 150 149s149-67 149-149c0-51-25-96-64-123V85c0-12 9-21 21-21s22 9 22 21 9 22 21 22 21-10 21-22c0-35-29-64-64-64-16 0-31 7-42 17z"/><glyph glyph-name="location" unicode="" horiz-adv-x="256" d="M128 43c9 0 31 25 51 70 20 46 34 103 34 135 0 52-38 93-85 93s-85-41-85-93c0-32 14-89 34-135 20-45 42-70 51-70zm0-43C57 0 0 173 0 248s57 136 128 136 128-61 128-136S199 0 128 0zm0 213c-24 0-43 19-43 43s19 43 43 43 43-19 43-43-19-43-43-43z"/><glyph glyph-name="tumbler-glass" unicode="" horiz-adv-x="299" d="M43 384h213c24 0 43-19 43-43V128C299 57 242 0 171 0h-43C57 0 0 57 0 128v213c0 24 19 43 43 43zm0-43V149h213v192H43z"/><glyph glyph-name="mail" unicode="" d="M43 235V64h341v171l-171-64zm0 85v-43l170-64 171 64v43H43zm0 43h341c24 0 43-19 43-43V64c0-24-19-43-43-43H43C19 21 0 40 0 64v256c0 24 19 43 43 43z"/><glyph glyph-name="folder" unicode="" horiz-adv-x="384" d="M171 341h170c24 0 43-18 43-42V43c0-24-19-43-43-43H43C19 0 0 19 0 43v298c0 23 20 43 43 43h85zM43 299V43h298v256H43z"/><glyph glyph-name="drop-down" unicode="" horiz-adv-x="299" d="M0 277h299L149 107z"/><glyph glyph-name="columns" unicode="" d="M43 363h341c24 0 43-19 43-43V64c0-24-19-43-43-43H43C19 21 0 40 0 64v256c0 24 19 43 43 43zm256-43V64h85v256h-85zm-256 0V64h85v256H43zm128 0V64h85v256h-85z"/><glyph glyph-name="apron" unicode="" horiz-adv-x="341" d="M121 277l-21-128H43V21h256v128h-58l-21 128h-99zm7 107v-64h85v64c0 12 10 21 22 21s21-9 21-21v-64l21-128h22c24 0 42-19 42-43V21c0-24-18-42-42-42H43C19-21 0-3 0 21v128c0 24 19 43 43 43h21l21 128v64c0 12 10 21 22 21s21-9 21-21zM85 107h171V64H85v43z"/><glyph glyph-name="coffee" unicode="" horiz-adv-x="384" d="M21 85h342c12 0 21-9 21-21s-9-21-21-21H21C9 43 0 52 0 64s9 21 21 21zm278 214h21c24 0 43-19 43-43s-19-43-43-43h-23c-10-49-53-85-105-85h-43c-59 0-106 48-106 107v64c0 24 18 42 42 42h171c24 0 43-18 43-42zm-214 0v-64c0-35 29-64 64-64h43c35 0 64 29 64 64v64H85z"/><glyph glyph-name="stop" unicode="" horiz-adv-x="299" d="M43 341h213c24 0 43-18 43-42V85c0-24-19-42-43-42H43C19 43 0 61 0 85v214c0 24 19 42 43 42z"/><glyph glyph-name="pocket" unicode="" d="M425 359c2-4 2-10 2-14V217l-2-26c-6-58-36-109-83-145-1-1-2-1-3-2-24-18-51-30-80-36h-1c-2 0-3-1-5-1-13-2-26-4-39-4-14 0-29 1-43 4-30 6-58 19-83 37h-1l-2 2C38 81 7 133 1 191l-1 26v128c0 5 1 10 3 14 6 15 20 25 36 25h349c16 0 31-10 37-25zm-91-135c12 11 12 30 1 42s-29 12-41 1l-80-77-81 77c-12 11-30 11-41-1s-11-31 1-42l100-96c6-5 14-8 21-8s14 3 20 8z"/><glyph glyph-name="mention" unicode="" horiz-adv-x="384" d="M384 192c0-41-34-75-75-75-20 0-38 8-51 21-16-19-39-31-66-31-47 0-85 38-85 85s38 85 85 85c16 0 30-4 43-11v11h42v-85c0-18 14-32 32-32s32 14 32 32c0 82-67 149-149 149S43 274 43 192 110 43 192 43c28 0 55 7 77 21h66C300 25 249 0 192 0 86 0 0 86 0 192s86 192 192 192 192-86 192-192zm-192-43c24 0 43 19 43 43s-19 43-43 43-43-19-43-43 19-43 43-43z"/><glyph glyph-name="facebook" unicode="" d="M293-21v165h55l9 64h-64v41c0 19 5 32 32 32h34v57c-6 1-26 3-50 3-49 0-83-30-83-85v-48h-55v-64h55V-21H24C11-21 0-11 0 2v380c0 13 11 23 24 23h379c13 0 24-10 24-23V2c0-13-11-23-24-23H293z"/><glyph glyph-name="tiled" unicode="" horiz-adv-x="341" d="M43 363h256c24 0 42-19 42-43V64c0-24-18-43-42-43H43C19 21 0 40 0 64v256c0 24 19 43 43 43zm149-192V64h107v107H192zm-149 0V64h106v107H43zm149 149V213h107v107H192zm-149 0V213h106v107H43z"/><glyph glyph-name="wordpress" unicode="" d="M213 405c118 0 214-95 214-213S331-21 213-21 0 74 0 192s95 213 213 213zm0-417c112 0 204 92 204 204s-92 204-204 204S10 304 10 192 101-12 213-12zM30 192c0 27 6 51 16 74l87-239C72 57 30 120 30 192zm307 9c0-16-6-34-14-59l-18-61-66 197c11 1 20 2 20 2 10 1 9 16-1 15 0 0-29-3-48-3-18 0-49 3-49 3-10 1-11-14-1-15 0 0 9-1 19-2l29-78-40-120-67 198c11 1 21 2 21 2 10 1 9 16-1 15 0 0-30-3-49-3-3 0-8 1-12 1 33 50 89 82 153 82 48 0 91-18 124-48h-2c-18 0-31-15-31-32 0-15 9-28 18-43 7-12 15-28 15-51zm-120-25l56-154c0-1 1-2 1-3-19-7-40-10-61-10-18 0-35 2-51 7zm157 104c1-6 1-12 1-19 0-19-4-40-14-66L305 34c54 32 91 90 91 158 0 32-8 62-22 88z"/><glyph glyph-name="distribute-vertically" unicode="" d="M107 235h213c24 0 43-19 43-43s-19-43-43-43H107c-24 0-43 19-43 43s19 43 43 43zM21 85h384c12 0 22-9 22-21s-10-21-22-21H21C9 43 0 52 0 64s9 21 21 21zm0 256h384c12 0 22-9 22-21s-10-21-22-21H21c-12 0-21 9-21 21s9 21 21 21z"/><glyph glyph-name="magic" unicode="" horiz-adv-x="384" d="M0 341l43 43L384 43 341 0zm213 0l22 43 21-43 43-21-43-21-21-43-22 43-42 21zM43 128l21 43 21-43 43-21-43-22-21-42-21 42-43 22zM21 256l22-21-22-22-21 22zm299-21l21-22-21-21-21 21z"/><glyph glyph-name="ticket" unicode="" d="M0 235v42c0 24 19 43 43 43h341c24 0 43-19 43-43v-42c-24 0-43-19-43-43s19-43 43-43v-42c0-24-19-43-43-43H43C19 64 0 83 0 107v42c24 0 43 19 43 43s-19 43-43 43zm64 42V107h299v170H64zm43-42h213v-86H107v86z"/><glyph glyph-name="difference" unicode="" horiz-adv-x="384" d="M256 128V43c0-24-19-43-43-43H43C19 0 0 19 0 43v170c0 24 19 43 43 43h85v85c0 24 19 43 43 43h170c24 0 43-19 43-43V171c0-24-19-43-43-43h-85zm-85 128h85v-85h85v170H171v-85zM43 213V43h170v85h-85v85H43z"/><glyph glyph-name="disappointed" unicode="" d="M213-21C95-21 0 74 0 192s95 213 213 213 214-95 214-213S331-21 213-21zm0 42c94 0 171 77 171 171s-77 171-171 171S43 286 43 192 119 21 213 21zm86 64h-29s-9 57-57 57-57-57-57-57h-28c0 47 38 86 85 86s86-39 86-86zm-48 167l-16 4v21l85-21v-21l-26 6c3-5 5-11 5-17 0-18-14-32-32-32s-32 14-32 32c0 12 6 23 16 28zm-118-11l-26-6v21l85 21v-21l-16-4c10-5 16-16 16-28 0-18-14-32-32-32s-32 14-32 32c0 6 2 12 5 17z"/><glyph glyph-name="bread" unicode="" horiz-adv-x="384" d="M299 43v185l21 12c13 8 21 22 21 37v22c0 24-18 42-42 42H85c-24 0-42-18-42-42v-22c0-15 8-29 21-37l21-12V43h214zm42 0c0-24-18-43-42-43H85C61 0 43 19 43 43v160c-26 15-43 42-43 74v22c0 47 38 85 85 85h214c47 0 85-38 85-85v-22c0-32-17-59-43-74V43z"/><glyph glyph-name="distribute-horizontally" unicode="" horiz-adv-x="299" d="M43 0c0-12-10-21-22-21S0-12 0 0v384c0 12 9 21 21 21s22-9 22-21V0zm256 0c0-12-10-21-22-21s-21 9-21 21v384c0 12 9 21 21 21s22-9 22-21V0zM192 85c0-24-19-42-43-42s-42 18-42 42v214c0 24 18 42 42 42s43-18 43-42V85z"/><glyph glyph-name="pie-chart" unicode="" d="M213-21C95-21 0 74 0 192s95 213 213 213 214-95 214-213S331-21 213-21zm0 384c-94 0-170-77-170-171S119 21 213 21s171 77 171 171H213v171z"/><glyph glyph-name="wine-glass" unicode="" horiz-adv-x="213" d="M43 21h42v128c-47 0-85 39-85 86v128c0 24 19 42 43 42h128c24 0 42-18 42-42V235c0-47-38-86-85-86V21h43c12 0 21-9 21-21s-9-21-21-21H43c-12 0-22 9-22 21s10 21 22 21zm0 342V235c0-24 18-43 42-43h43c24 0 43 19 43 43v128H43z"/><glyph glyph-name="file-movie" unicode="" horiz-adv-x="341" d="M43 405h213l85-85V21c0-24-18-42-42-42H43C19-21 0-3 0 21v342c0 24 19 42 43 42zm195-42H43V21h256v281h-61v61zm-67-192c12 0 21-10 21-22V85s-9-21-21-21h-64c-12 0-22 9-22 21v64s10 22 22 22h64zm21-54l64 32V85z"/><glyph glyph-name="bar" unicode="" horiz-adv-x="384" d="M0 107h384V64H0v43zm0 106h384v-42H0v42zm0 107h384v-43H0v43z"/><glyph glyph-name="list-bullet" unicode="" horiz-adv-x="384" d="M149 363h214c12 0 21-10 21-22s-9-21-21-21H149c-12 0-21 9-21 21s9 22 21 22zm0-150h214c12 0 21-9 21-21s-9-21-21-21H149c-12 0-21 9-21 21s9 21 21 21zm0-149h214c12 0 21-9 21-21s-9-22-21-22H149c-12 0-21 10-21 22s9 21 21 21zM43 299c-24 0-43 18-43 42s19 43 43 43 42-19 42-43-18-42-42-42zm0-150c-24 0-43 19-43 43s19 43 43 43 42-19 42-43-18-43-42-43zM43 0C19 0 0 19 0 43s19 42 43 42 42-18 42-42S67 0 43 0z"/><glyph glyph-name="gift" unicode="" horiz-adv-x="384" d="M341 192V21c0-24-18-42-42-42H85C61-21 43-3 43 21v171c-24 0-43 19-43 43v42c0 24 19 43 43 43h25c-2 7-4 14-4 21 0 35 29 64 64 64s64-29 64-64c0 35 29 64 64 64s64-29 64-64c0-7-2-14-4-21h25c24 0 43-19 43-43v-42c0-24-19-43-43-43zm-170 85H43v-42h128v42zm42 0v-42h128v42H213zM85 192V21h214v171H85zm43 128h21v21c0 12-9 22-21 22s-21-10-21-22 9-21 21-21zm128 0c12 0 21 9 21 21s-9 22-21 22-21-10-21-22v-21h21z"/><glyph glyph-name="edit" unicode="" horiz-adv-x="341" d="M21 21h299c12 0 21-9 21-21s-9-21-21-21H21C9-21 0-12 0 0s9 21 21 21zM0 128l213 213 64-64L64 64H0v64zm235 235l42 42 64-64-42-42z"/><glyph glyph-name="cry" unicode="" d="M160 192c-18 0-32 14-32 32s14 32 32 32 32-14 32-32-14-32-32-32zm117-85h-21s-7 42-43 42-42-42-42-42h-22c0 35 29 64 64 64s64-29 64-64zm-10 85c-18 0-32 14-32 32s14 32 32 32 32-14 32-32-14-32-32-32zM213 21c94 0 171 77 171 171s-77 171-171 171S43 286 43 192 119 21 213 21zm0-42C95-21 0 74 0 192s95 213 213 213 214-95 214-213S331-21 213-21zm86 149c-12 0-22 9-22 21 0 8 8 22 22 43 14-21 21-35 21-43 0-12-9-21-21-21z"/><glyph glyph-name="upload" unicode="" horiz-adv-x="341" d="M192 324V85h-43v239l-69-70-30 31 121 120 120-120-30-31zM21 43h299c12 0 21-10 21-22s-9-21-21-21H21C9 0 0 9 0 21s9 22 21 22z"/><glyph glyph-name="heart" unicode="" horiz-adv-x="384" d="M192 21C145 31 0 112 0 256c0 59 48 107 107 107 35 0 66-17 85-43 19 26 50 43 85 43 59 0 107-48 107-107 0-144-145-225-192-235z"/><glyph glyph-name="text-align-center" unicode="" horiz-adv-x="341" d="M320 299H21c-12 0-21 9-21 21s9 21 21 21h299c12 0 21-9 21-21s-9-21-21-21zm-43-86H64c-12 0-21 10-21 22s9 21 21 21h213c12 0 22-9 22-21s-10-22-22-22zm43-85H21c-12 0-21 9-21 21s9 22 21 22h299c12 0 21-10 21-22s-9-21-21-21zm-43-85H64c-12 0-21 9-21 21s9 21 21 21h213c12 0 22-9 22-21s-10-21-22-21z"/><glyph glyph-name="vector" unicode="" d="M128 21c0-24-19-42-43-42H43C19-21 0-3 0 21v43c0 24 19 43 43 43v170c-24 0-43 19-43 43v43c0 24 19 42 43 42h42c24 0 43-18 43-42h171c0 24 18 42 42 42h43c24 0 43-18 43-42v-43c0-24-19-43-43-43V107c24 0 43-19 43-43V21c0-24-19-42-43-42h-43c-24 0-42 18-42 42H128zm0 299c0-24-19-43-43-43V107c24 0 43-19 43-43h171c0 24 18 43 42 43v170c-24 0-42 19-42 43H128zm-85 43v-43h42v43H43zm298 0v-43h43v43h-43zm0-299V21h43v43h-43zM43 64V21h42v43H43z"/><glyph glyph-name="activity" unicode="" horiz-adv-x="299" d="M128 43c0-12-9-22-21-22S85 31 85 43v234c0 12 10 22 22 22s21-10 21-22V43zm-85 0c0-12-10-22-22-22S0 31 0 43v149c0 12 9 21 21 21s22-9 22-21V43zm128 0v192c0 12 9 21 21 21s21-9 21-21V43c0-12-9-22-21-22s-21 10-21 22zm85 298c0 12 9 22 21 22s22-10 22-22V43c0-12-10-22-22-22s-21 10-21 22v298z"/><glyph glyph-name="sitemap" unicode="" horiz-adv-x="384" d="M341 128c24 0 43-19 43-43V43c0-24-19-43-43-43h-42c-24 0-43 19-43 43v42c0 24 19 43 43 43v43H85v-43c24 0 43-19 43-43V43c0-24-19-43-43-43H43C19 0 0 19 0 43v42c0 24 19 43 43 43v43c0 24 18 42 42 42h86v43c-24 0-43 19-43 43v42c0 24 19 43 43 43h42c24 0 43-19 43-43v-42c0-24-19-43-43-43v-43h86c24 0 42-18 42-42v-43zM43 85V43h42v42H43zm256 0V43h42v42h-42zM171 341v-42h42v42h-42z"/><glyph glyph-name="check-circle" unicode="" d="M213-21C95-21 0 74 0 192s95 213 213 213 214-95 214-213S331-21 213-21zm-85 256l-43-43L192 85l149 150-42 42-107-106z"/><glyph glyph-name="arrow-down" unicode="" horiz-adv-x="341" d="M43 299l128-128 128 128 42-43L171 85 0 256z"/><glyph glyph-name="google" unicode="" horiz-adv-x="418" d="M213 151v80h200c3-13 5-26 5-44 0-122-82-208-205-208C95-21 0 74 0 192s95 213 213 213c58 0 106-20 143-55l-61-59c-15 15-42 31-82 31-71 0-128-58-128-130S142 61 213 61c82 0 112 57 118 90H213z"/><glyph glyph-name="instagram" unicode="" d="M213 405c58 0 65 0 88-1s38-5 52-10 26-12 38-24 19-24 24-38 9-29 10-52 2-30 2-88-1-65-2-88-5-38-10-52-12-26-24-38-24-19-38-24-29-9-52-10-30-1-88-1-65 0-88 1-37 5-51 10S48 2 36 14 16 38 11 52 2 81 1 104s-1 30-1 88 0 65 1 88 5 38 10 52 13 26 25 38 24 19 38 24 28 9 51 10 30 1 88 1zm0-38c-57 0-64 0-86-1-21-1-31-5-39-8-10-4-18-9-25-16s-12-14-16-24c-3-8-6-19-7-40-1-22-2-29-2-86s1-64 2-86c1-21 4-32 7-40 4-10 9-17 16-24s15-12 25-16c8-3 18-7 39-8 22-1 29-1 86-1s65 0 87 1c21 1 31 5 39 8 10 4 18 9 25 16s12 14 16 24c3 8 6 19 7 40 1 22 1 29 1 86s0 64-1 86c-1 21-4 32-7 40-4 10-9 17-16 24s-15 12-25 16c-8 3-18 7-39 8-22 1-30 1-87 1zm0-246c39 0 71 32 71 71s-32 71-71 71-71-32-71-71 32-71 71-71zm0 181c61 0 110-49 110-110S274 82 213 82s-109 49-109 110 48 110 109 110zm140 4c0-14-12-26-26-26s-25 12-25 26 11 25 25 25 26-11 26-25z"/><glyph glyph-name="beginner" unicode="" horiz-adv-x="384" d="M192 287L43 339V118l149-69v238zM56 382l136-48 136 48c22 8 47-5 54-28 1-5 2-10 2-15V118c0-18-10-34-25-41L192 0 25 77c-15 7-25 23-25 41v221c0 25 19 45 43 45 5 0 9 0 13-2z"/><glyph glyph-name="picture" unicode="" d="M43 320V64h341v256H43zm0 43h341c24 0 43-19 43-43V64c0-24-19-43-43-43H43C19 21 0 40 0 64v256c0 24 19 43 43 43zm74-150c-18 0-32 14-32 32s14 32 32 32 32-14 32-32-14-32-32-32zm-10-64l42 43 43-43 85 86 64-64v-64H107v42z"/><glyph glyph-name="globe" unicode="" d="M0 192c0 118 95 213 213 213s214-95 214-213S331-21 213-21 0 74 0 192zm43 0c0-94 76-171 170-171s171 77 171 171-77 171-171 171S43 286 43 192zm90 33c5 11 14 42 20 42s4-16 10-17c5-1 1 7 14 8s26-6 26-6 16-4 30 0c0 0-8 11 1 15s22-10 22-19-20-15-20-15l20-12s6 19 19 19c11 0 25-20 18-29s-10-3-10-3-21-20-27-24-15 0-15 0-4-7 0-10c8-8 27-16 27-16s61-10 63-22-48-75-56-75h-19c-8 13 12 57 12 57s-10 11-12 18 4 19 4 19l-27 13s-15-1-22 5-11 38-11 38l-26 19s-23-29-30-25-16 9-11 20zm141 45c-18 0-62 23-55 35 0 18 46 15 56 15s34-7 47-18-5-26-12-32-18 0-36 0z"/><glyph glyph-name="smile-alt" unicode="" d="M213 21c94 0 171 77 171 171s-77 171-171 171S43 286 43 192 119 21 213 21zm0-42C95-21 0 74 0 192s95 213 213 213 214-95 214-213S331-21 213-21zm-64 192c0-35 29-64 64-64s64 29 64 64h22c0-47-39-86-86-86s-85 39-85 86h21zm11 42c-18 0-32 14-32 32s14 32 32 32 32-14 32-32-14-32-32-32zm107 0c-18 0-32 14-32 32s14 32 32 32 32-14 32-32-14-32-32-32z"/><glyph glyph-name="messanger" unicode="" horiz-adv-x="422" d="M233 141l116 122-105-58-55 56L74 139l105 58zm-22 264c117 0 211-88 211-197S328 10 211 10c-21 0-41 4-60 9L78-21v75C30 90 0 146 0 208c0 109 94 197 211 197z"/><glyph glyph-name="sync" unicode="" horiz-adv-x="384" d="M83 125c22-37 63-61 109-61 56 0 103 35 121 85h44C338 75 272 21 192 21 134 21 83 51 52 95L0 43v128h128zm218 134c-22 37-63 61-109 61-56 0-103-35-121-85H27c19 74 85 128 165 128 58 0 109-30 140-74l52 52V213H256z"/><glyph glyph-name="comment-o" unicode="" horiz-adv-x="384" d="M43 0v89C16 120 0 160 0 203c0 100 86 181 192 181s192-81 192-181S298 21 192 21c-37 0-72 10-101 27zm149 64c82 0 149 62 149 139s-67 138-149 138S43 280 43 203 110 64 192 64z"/><glyph glyph-name="align-center" unicode="" horiz-adv-x="341" d="M149 171v42H49c-27 0-49 19-49 43s22 43 49 43h100v85c0 12 10 21 22 21s21-9 21-21v-85h101c27 0 48-19 48-43s-21-43-48-43H192v-42h64c24 0 43-19 43-43s-19-43-43-43h-64V0c0-12-9-21-21-21s-22 9-22 21v85H85c-24 0-42 19-42 43s18 43 42 43h64z"/><glyph glyph-name="notice-on" unicode="" horiz-adv-x="341" d="M235 64V43c0-35-29-64-64-64s-64 29-64 64v21H21C9 64 0 73 0 85s9 22 21 22h22v128c0 63 45 116 106 126v23c0 12 10 21 22 21s21-9 21-21v-23c61-10 107-63 107-126V107h21c12 0 21-10 21-22s-9-21-21-21h-85zm-64-43c12 0 21 10 21 22v21h-43V43c0-12 10-22 22-22zm21 128v43h43c12 0 21 9 21 21s-9 22-21 22h-43v42c0 12-9 22-21 22s-22-10-22-22v-42h-42c-12 0-22-10-22-22s10-21 22-21h42v-43c0-12 10-21 22-21s21 9 21 21z"/><glyph glyph-name="unlock" unicode="" horiz-adv-x="341" d="M64 235v64c0 59 48 106 107 106s106-47 106-106c0-12-9-22-21-22s-21 10-21 22c0 35-29 64-64 64s-64-29-64-64v-64h192c24 0 42-19 42-43V21c0-24-18-42-42-42H43C19-21 0-3 0 21v171c0 24 19 43 43 43h21zm-21-43V21h256v171H43zm170-43h43V64h-43v85z"/><glyph glyph-name="export" unicode="" horiz-adv-x="341" d="M192 324V85h-43v239l-69-70-30 31 121 120 120-120-30-31zM0 107h43V21h256v86h42V21c0-23-19-42-42-42H43C20-21 0-1 0 21v86z"/><glyph glyph-name="arrow-left" unicode="" horiz-adv-x="213" d="M171 363l42-43L85 192 213 64l-42-43L0 192z"/><glyph glyph-name="add-cart" unicode="" horiz-adv-x="341" d="M85 107h171c12 0 21-10 21-22s-9-21-21-21H64c-12 0-21 9-21 21v278H21c-12 0-21 9-21 21s9 21 21 21h43c12 0 21-9 21-21V192h188l26 107v42c24 0 42-18 42-42 0-3 0-7-1-10l-24-106c-4-20-22-34-43-34H85v-42zM75-21C57-21 43-7 43 11s14 32 32 32 32-14 32-32-14-32-32-32zm192 0c-18 0-32 14-32 32s14 32 32 32 32-14 32-32-14-32-32-32zm-54 362h22c12 0 21-9 21-21s-9-21-21-21h-22v-22c0-12-9-21-21-21s-21 9-21 21v22h-22c-12 0-21 9-21 21s9 21 21 21h22v22c0 12 9 21 21 21s21-9 21-21v-22z"/><glyph glyph-name="close" unicode="" horiz-adv-x="302" d="M121 190L0 311l30 30 121-120 121 120 30-30-121-121L302 70l-30-30-121 120L30 40 0 70z"/><glyph glyph-name="calendar" unicode="" horiz-adv-x="384" d="M107 363h170v42h43v-42h21c24 0 43-19 43-43V21c0-24-19-42-43-42H43C19-21 0-3 0 21v299c0 24 19 43 43 43h21v42h43v-42zm-64-86V21h298v256H43zm42-64h43v-42H85v42zm86 0h42v-42h-42v42zm85 0h43v-42h-43v42zm0-85h43V85h-43v43zm-85 0h42V85h-42v43zm-86 0h43V85H85v43z"/><glyph glyph-name="align-vertically" unicode="" d="M320 171v-43c0-24-19-43-43-43s-42 19-42 43v43h-43V70c0-27-19-49-43-49s-42 22-42 49v101H21c-12 0-21 9-21 21s9 21 21 21h86v101c0 27 18 49 42 49s43-22 43-49V213h43v43c0 24 18 43 42 43s43-19 43-43v-43h85c12 0 22-9 22-21s-10-21-22-21h-85z"/><glyph glyph-name="sunrise" unicode="" d="M405 128H21c-12 0-21 9-21 21s9 22 21 22h22c0 94 76 170 170 170s171-76 171-170h21c12 0 22-10 22-22s-10-21-22-21zm-64-85H85c-12 0-21 9-21 21s9 21 21 21h256c12 0 22-9 22-21s-10-21-22-21zM85 171h256c0 71-57 128-128 128S85 242 85 171z"/><glyph glyph-name="app-menu" unicode="" horiz-adv-x="341" d="M256 107h85V21h-85v86zm-128 0h85V21h-85v86zM0 107h85V21H0v86zm256 128h85v-86h-85v86zm-128 0h85v-86h-85v86zM0 235h85v-86H0v86zm256 128h85v-86h-85v86zm-128 0h85v-86h-85v86zM0 363h85v-86H0v86z"/><glyph glyph-name="palette" unicode="" d="M182-19c6 12 10 25 10 40 0 47-38 86-85 86-28 0-55-15-70-36-24 34-37 76-37 121 0 118 95 213 213 213s214-95 214-213S331-21 213-21c-11 0-21 0-31 2zm-33 275c24 0 43 19 43 43s-19 42-43 42-42-18-42-42 18-43 42-43zm128 0c24 0 43 19 43 43s-19 42-43 42-42-18-42-42 18-43 42-43zm64-107c24 0 43 19 43 43s-19 43-43 43-42-19-42-43 18-43 42-43zm-256 0c24 0 43 19 43 43s-19 43-43 43-42-19-42-43 18-43 42-43zM277 43c24 0 43 18 43 42s-19 43-43 43-42-19-42-43 18-42 42-42z"/><glyph glyph-name="scale" unicode="" horiz-adv-x="384" d="M168 64c-9-37-43-64-83-64C38 0 0 38 0 85c0 40 27 74 64 83v3c0 44 27 82 65 98 6 65 61 115 127 115 71 0 128-57 128-128 0-66-50-121-115-127-16-38-54-65-98-65h-3zm5 213c57-1 103-47 104-104 37 9 64 43 64 83 0 47-38 85-85 85-40 0-74-27-83-64zm-5-170h3c35 0 64 29 64 64s-29 64-64 64-64-29-64-64v-3c30-8 53-31 61-61zM85 43c24 0 43 18 43 42s-19 43-43 43-42-19-42-43 18-42 42-42z"/><glyph glyph-name="clock" unicode="" d="M213-21C95-21 0 74 0 192s95 213 213 213 214-95 214-213S331-21 213-21zm171 213c0 94-77 171-171 171S43 286 43 192 119 21 213 21s171 77 171 171zm-85 21c12 0 21-9 21-21s-9-21-21-21h-64c-23 0-43 19-43 42v86c0 12 9 21 21 21s22-9 22-21v-86h64z"/><glyph glyph-name="comments" unicode="" d="M51 136l-30-29v59C7 186 0 210 0 235c0 71 62 128 139 128 69 0 127-48 137-109 7 1 15 2 23 2 71 0 128-52 128-117 0-24-9-46-22-65V21l-26 26c-22-16-49-26-80-26-60 0-111 39-125 90-11-3-23-4-35-4-33 0-64 11-88 29zm88 13c54 0 96 40 96 86s-42 85-96 85-96-39-96-85 42-86 96-86zm75-22c6-35 42-63 85-63 48 0 85 34 85 75s-37 74-85 74c-8 0-16-1-24-3-7-35-30-64-61-83z"/><glyph glyph-name="moon" unicode="" horiz-adv-x="341" d="M191 384c-52-29-86-85-86-149 0-94 75-171 168-171 24 0 47 5 68 15-34-48-89-79-152-79C85 0 0 86 0 192s85 192 189 192h2z"/><glyph glyph-name="file-powerpoint" unicode="" horiz-adv-x="341" d="M43 405h213l85-85V21c0-24-18-42-42-42H43C19-21 0-3 0 21v342c0 24 19 42 43 42zm195-42H43V21h256v281h-61v61zM128 107V64H85v171h107c35 0 64-29 64-64s-29-64-64-64h-64zm0 85v-43h64c12 0 21 10 21 22s-9 21-21 21h-64z"/><glyph glyph-name="intersect" unicode="" horiz-adv-x="384" d="M256 128V43c0-24-19-43-43-43H43C19 0 0 19 0 43v170c0 24 19 43 43 43h85v85c0 24 19 43 43 43h170c24 0 43-19 43-43V171c0-24-19-43-43-43h-85zm-107 21h86v86h-86v-86z"/><glyph glyph-name="timeline" unicode="" horiz-adv-x="384" d="M132 85c9 25 32 43 60 43s51-18 60-43h111l21-21-21-21H252c-9-25-32-43-60-43s-51 18-60 43H0l21 21L0 85h132zm60-42c12 0 21 9 21 21s-9 21-21 21-21-9-21-21 9-21 21-21zm43 149l-43-43-43 43H85c-24 0-42 19-42 43v106c0 24 18 43 42 43h214c24 0 42-19 42-43V235c0-24-18-43-42-43h-64zM85 341V235h86l21-22 21 22h86v106H85z"/><glyph glyph-name="print" unicode="" horiz-adv-x="341" d="M64 213v150c0 24 19 42 43 42h128c24 0 42-18 42-42V213h22c24 0 42-18 42-42v-64c0-23-19-43-42-43h-22V21c0-24-18-42-42-42H107C83-21 64-3 64 21v43H43C20 64 0 84 0 107v64c0 24 19 42 43 42h21zm43 150V213h128v150H107zm106-192v-43h43v43h-43zM107 64V21h128v43H107z"/><glyph glyph-name="import" unicode="" horiz-adv-x="341" d="M192 167l69 69 30-30L171 85 50 206l30 30 69-69v238h43V167zM0 107h43V21h256v86h42V21c0-23-19-42-42-42H43C20-21 0-1 0 21v86z"/><glyph glyph-name="text-size" unicode="" horiz-adv-x="384" d="M224 96l51 154h47l62-186h-42l-12 41h-63l-14-41h-76l-17 57H73L54 64H0l85 256h64zM85 171h64l-32 85zm190-29h47l-23 62z"/><glyph glyph-name="check-circle-o" unicode="" d="M213 21c94 0 171 77 171 171s-77 171-171 171S43 286 43 192 119 21 213 21zm0-42C95-21 0 74 0 192s95 213 213 213 214-95 214-213S331-21 213-21zm-85 256l64-64 107 106 42-42L192 85 85 192z"/><glyph glyph-name="align-top" unicode="" horiz-adv-x="341" d="M17 384h307c9 0 17-9 17-21s-8-22-17-22H17c-9 0-17 10-17 22s8 21 17 21zm47-128c0 24 19 43 43 43s42-19 42-43V43c0-24-18-43-42-43S64 19 64 43v213zm128 0c0 24 19 43 43 43s42-19 42-43V128c0-24-18-43-42-43s-43 19-43 43v128z"/><glyph glyph-name="hash" unicode="" horiz-adv-x="341" d="M128 128h85v128h-85V128zm0-43V21c0-12-9-21-21-21S85 9 85 21v64H21C9 85 0 95 0 107s9 21 21 21h64v128H21c-12 0-21 9-21 21s9 22 21 22h64v64c0 12 10 21 22 21s21-9 21-21v-64h85v64c0 12 10 21 22 21s21-9 21-21v-64h64c12 0 21-10 21-22s-9-21-21-21h-64V128h64c12 0 21-9 21-21s-9-22-21-22h-64V21c0-12-9-21-21-21s-22 9-22 21v64h-85z"/><glyph glyph-name="bold" unicode="" horiz-adv-x="299" d="M0 21v342c0 23 20 42 43 42h106c64 0 127-30 128-105 0-39-20-79-54-92v-3c43-11 76-43 76-101 0-22-5-40-13-56-23-47-71-69-137-69H43C20-21 0-2 0 21zm64 22h85c55 0 86 26 86 64s-31 64-86 64H64V43zm0 192h64c51 0 85 18 85 54s-32 52-85 52H64V235z"/><glyph glyph-name="youtube" unicode="" d="M169 136l116 60-116 60V136zm253 141s5-34 5-69v-33c0-35-5-69-5-69s-4-29-17-42c-16-17-34-17-42-18-60-4-150-5-150-5s-111 2-145 5c-9 2-31 1-47 18C8 77 4 106 4 106s-4 34-4 69v33c0 35 4 69 4 69s4 29 17 42c16 17 35 17 43 18 60 4 149 4 149 4s90 0 150-4c8-1 26-1 42-18 13-13 17-42 17-42z"/><glyph glyph-name="bar-chart" unicode="" horiz-adv-x="384" d="M43 43h320c12 0 21-10 21-22s-9-21-21-21H21C9 0 0 9 0 21v171c0 12 9 21 21 21s22-9 22-21V43zm106 85c0-12-9-21-21-21s-21 9-21 21v192c0 12 9 21 21 21s21-9 21-21V128zm43 0v149c0 12 9 22 21 22s22-10 22-22V128c0-12-10-21-22-21s-21 9-21 21zm85 235c0 12 10 21 22 21s21-9 21-21V128c0-12-9-21-21-21s-22 9-22 21v235z"/><glyph glyph-name="align-bottom" unicode="" horiz-adv-x="341" d="M17 43h307c9 0 17-10 17-22s-8-21-17-21H17C8 0 0 9 0 21s8 22 17 22zm132 85c0-24-18-43-42-43s-43 19-43 43v213c0 24 19 43 43 43s42-19 42-43V128zm128 0c0-24-18-43-42-43s-43 19-43 43v128c0 24 19 43 43 43s42-19 42-43V128z"/><glyph glyph-name="cart" unicode="" horiz-adv-x="341" d="M85 107h171c12 0 21-10 21-22s-9-21-21-21H64c-12 0-21 9-21 21v278H21c-12 0-21 9-21 21s9 21 21 21h43c12 0 21-9 21-21v-43h212c24 0 44-18 44-42 0-3 0-7-1-10l-24-106c-4-20-22-34-43-34H85v-42zM75-21C57-21 43-7 43 11s14 32 32 32 32-14 32-32-14-32-32-32zm192 0c-18 0-32 14-32 32s14 32 32 32 32-14 32-32-14-32-32-32zM85 299V192h189l25 107H85z"/><glyph glyph-name="user-minus" unicode="" horiz-adv-x="384" d="M171 128c68 0 128-12 170-65V21H0v42c42 53 103 65 171 65zm0 64c-47 0-86 38-86 85s39 86 86 86 85-39 85-86-38-85-85-85zm106-43c-12 0-21 10-21 22s9 21 21 21h86c12 0 21-9 21-21s-9-22-21-22h-86z"/><glyph glyph-name="yaki-dango" unicode="" horiz-adv-x="128" d="M85 68V0c0-12-9-21-21-21S43-12 43 0v68c-25 9-43 32-43 60 0 22 12 42 29 53-17 11-29 32-29 54s12 42 29 53c-17 11-29 31-29 53 0 35 29 64 64 64s64-29 64-64c0-22-12-42-29-53 17-11 29-31 29-53s-12-43-29-54c17-11 29-31 29-53 0-28-18-51-43-60zM64 320c12 0 21 9 21 21s-9 22-21 22-21-10-21-22 9-21 21-21zm0-107c12 0 21 10 21 22s-9 21-21 21-21-9-21-21 9-22 21-22zm0-106c12 0 21 9 21 21s-9 21-21 21-21-9-21-21 9-21 21-21z"/><glyph glyph-name="italic" unicode="" horiz-adv-x="299" d="M85 43l80 298h-58c-12 0-22 10-22 22s10 21 22 21h170c12 0 22-9 22-21s-10-22-22-22h-68L129 43h63c12 0 21-10 21-22s-9-21-21-21H21C9 0 0 9 0 21s9 22 21 22h64z"/><glyph glyph-name="logout" unicode="" horiz-adv-x="384" d="M0 341c0 23 20 43 43 43h170v-43H43V43h170V0H43C20 0 0 20 0 43v298zm302-128l-54 54 30 31 106-106L278 86l-30 31 54 54H162v42h140z"/><glyph glyph-name="bolt" unicode="" horiz-adv-x="256" d="M256 405L128 256h107L43-21l42 192H0l85 234h171z"/><glyph glyph-name="key" unicode="" d="M211 213h216v-85c0-12-10-21-22-21s-21 9-21 21v43h-43v-43c0-12-9-21-21-21s-21 9-21 21v43h-88c-10-49-52-86-104-86C48 85 0 133 0 192s48 107 107 107c52 0 94-37 104-86zm-104-85c35 0 64 29 64 64s-29 64-64 64-64-29-64-64 29-64 64-64z"/><glyph glyph-name="eject" unicode="" horiz-adv-x="256" d="M21 107h214c12 0 21-10 21-22s-9-21-21-21H21C9 64 0 73 0 85s9 22 21 22zm128 204l103-129c8-10 4-23-7-29-4-2-9-4-14-4H25c-14 0-25 10-25 21 0 4 1 9 4 12l103 129c8 10 24 12 35 6 3-2 5-4 7-6z"/><glyph glyph-name="subtract" unicode="" horiz-adv-x="384" d="M256 128V43c0-24-19-43-43-43H43C19 0 0 19 0 43v170c0 24 19 43 43 43h85v85c0 24 19 43 43 43h170c24 0 43-19 43-43V171c0-24-19-43-43-43h-85zm-85 43h170v170H171V171z"/><glyph glyph-name="union" unicode="" horiz-adv-x="384" d="M256 128V43c0-24-19-43-43-43H43C19 0 0 19 0 43v170c0 24 19 43 43 43h85v85c0 24 19 43 43 43h170c24 0 43-19 43-43V171c0-24-19-43-43-43h-85zm-43 43h128v170H171V213H43V43h170v128z"/><glyph glyph-name="plug" unicode="" horiz-adv-x="384" d="M299 213v-42h64c12 0 21-10 21-22s-9-21-21-21h-70c-7-13-21-21-37-21h-64c-40 0-74 27-83 64H21c-12 0-21 9-21 21s9 21 21 21h88c9 37 43 64 83 64h64c16 0 30-8 37-21h70c12 0 21-9 21-21s-9-22-21-22h-64z"/><glyph glyph-name="search" unicode="" d="M306 130L420 15c8-8 8-22 0-30s-22-8-30 0L275 100c-29-22-65-36-104-36C77 64 0 141 0 235s77 170 171 170 170-76 170-170c0-39-13-76-35-105zm-135-23c71 0 128 57 128 128s-57 128-128 128S43 306 43 235s57-128 128-128z"/><glyph glyph-name="commenting" unicode="" horiz-adv-x="384" d="M43 0v89C16 120 0 160 0 203c0 100 86 181 192 181s192-81 192-181S298 21 192 21c-37 0-72 10-101 27zm149 64c82 0 149 62 149 139s-67 138-149 138S43 280 43 203 110 64 192 64zm-53 107c-18 0-32 14-32 32s14 32 32 32 32-14 32-32-14-32-32-32zm106 0c-18 0-32 14-32 32s14 32 32 32 32-14 32-32-14-32-32-32z"/><glyph glyph-name="tablet" unicode="" horiz-adv-x="341" d="M43 363V43h256v320H43zm0 42h256c24 0 42-18 42-42V21c0-24-18-42-42-42H43C19-21 0-3 0 21v342c0 24 19 42 43 42z"/><glyph glyph-name="file-image" unicode="" horiz-adv-x="341" d="M43 405h213l85-85V21c0-24-18-42-42-42H43C19-21 0-3 0 21v342c0 24 19 42 43 42zm195-42H43V21h256v281h-61v61zm-3-214c-12 0-22 10-22 22s10 21 22 21 21-9 21-21-9-22-21-22zM85 107l66 64 62-64 22 21 21-21V64H85v43z"/><glyph glyph-name="credit-card" unicode="" d="M43 363h341c24 0 43-19 43-43V64c0-24-19-43-43-43H43C19 21 0 40 0 64v256c0 24 19 43 43 43zm0-43v-64h341v64H43zm0-107V64h341v149H43zm42-64h86v-42H85v42zm128 0h86v-42h-86v42z"/><glyph glyph-name="filter" unicode="" horiz-adv-x="341" d="M299 321v42H43v-42l128-92zM192 192V21l-43-42v213L18 286c-11 8-18 21-18 35v42c0 24 19 42 43 42h256c24 0 42-18 42-42v-42c0-14-7-27-18-35z"/><glyph glyph-name="mitarashi-dango" unicode="" horiz-adv-x="128" d="M85 68V0c0-12-9-21-21-21S43-12 43 0v68c-25 9-43 32-43 60 0 22 12 42 29 53-17 11-29 32-29 54s12 42 29 53c-17 11-29 31-29 53 0 35 29 64 64 64s64-29 64-64c0-22-12-42-29-53 17-11 29-31 29-53s-12-43-29-54c17-11 29-31 29-53 0-28-18-51-43-60z"/><glyph glyph-name="plus" unicode="" horiz-adv-x="384" d="M213 171V21c0-12-9-21-21-21s-21 9-21 21v150H21c-12 0-21 9-21 21s9 21 21 21h150v150c0 12 9 21 21 21s21-9 21-21V213h150c12 0 21-9 21-21s-9-21-21-21H213z"/><glyph glyph-name="fast-backward" unicode="" horiz-adv-x="384" d="M43 192c0 2 0 5 1 7s3 4 5 5l146 93c6 4 14 2 17-5 1-2 1-5 1-7v-93c0 2 1 5 2 7s3 4 5 5l146 93c6 4 13 2 16-5 1-2 2-5 2-7V99c0-8-5-14-12-14-2 0-4 1-6 2l-146 93c-4 3-7 7-7 12V99c0-8-5-14-12-14-2 0-4 1-6 2L49 180c-4 3-6 7-6 12v-85c0-12-11-22-22-22S0 95 0 107v170c0 12 9 22 21 22s22-10 22-22v-85z"/><glyph glyph-name="folder-open" unicode="" horiz-adv-x="384" d="M171 341h170c24 0 43-18 43-42V43c0-24-19-43-43-43H43C19 0 0 19 0 43v298c0 23 20 43 43 43h85zm-43-128V43h213v170H128zm-85 86V43h42v213h256v43H43z"/><glyph glyph-name="picture-square" unicode="" horiz-adv-x="384" d="M43 341V43h298v298H43zm0 43h298c24 0 43-19 43-43V43c0-24-19-43-43-43H43C19 0 0 19 0 43v298c0 24 19 43 43 43zm74-149c-18 0-32 14-32 32s14 32 32 32 32-14 32-32-14-32-32-32zm-32-86l43 43 43-43 64 64 64-64V85H85v64z"/><glyph glyph-name="open-mouth" unicode="" d="M213 21c94 0 171 77 171 171s-77 171-171 171S43 286 43 192 119 21 213 21zm0-42C95-21 0 74 0 192s95 213 213 213 214-95 214-213S331-21 213-21zm0 106c-24 0-42 19-42 43s18 43 42 43 43-19 43-43-19-43-43-43zm54 128c-18 0-32 14-32 32s14 32 32 32 32-14 32-32-14-32-32-32zm-107 0c-18 0-32 14-32 32s14 32 32 32 32-14 32-32-14-32-32-32z"/><glyph glyph-name="arrow-right" unicode="" horiz-adv-x="213" d="M43 363l170-171L43 21 0 64l128 128L0 320z"/><glyph glyph-name="login" unicode="" horiz-adv-x="384" d="M140 213l-54 54 31 31 105-106L117 86l-31 31 54 54H0v42h140zm31 171h170c23 0 43-20 43-43V43c0-23-20-43-43-43H171v43h170v298H171v43z"/><glyph glyph-name="list-task" unicode="" horiz-adv-x="341" d="M107 171h213c12 0 21-10 21-22s-9-21-21-21H107c-12 0-22 9-22 21s10 22 22 22zm0-86h213c12 0 21-9 21-21s-9-21-21-21H107c-12 0-22 9-22 21s10 21 22 21zm128 171h85c12 0 21-9 21-21s-9-22-21-22h-85c-12 0-22 10-22 22s10 21 22 21zM80 215L0 295l30 30 50-49 108 108 31-30z"/><glyph glyph-name="warning" unicode="" d="M213 21c94 0 171 77 171 171s-77 171-171 171S43 286 43 192 119 21 213 21zm0-42C95-21 0 74 0 192s95 213 213 213 214-95 214-213S331-21 213-21zm-21 128h43V64h-43v43zm0 213h43V149h-43v171z"/><glyph glyph-name="birthday-cake" unicode="" horiz-adv-x="384" d="M299 235c47 0 85-39 85-86V43c0-24-19-43-43-43H43C19 0 0 19 0 43v106c0 47 38 86 85 86v64h43v-64h43v64h42v-64h43v64h43v-64zM85 192c-24 0-42-19-42-43v-21h298v21c0 24-18 43-42 43H85zM43 85V43h298v42H43zm42 278c12 0 22 9 22 21 12 0 21-9 21-21v-22c0-12-9-21-21-21s-22 9-22 21v22zm86 0c12 0 21 9 21 21 12 0 21-9 21-21v-22c0-12-9-21-21-21s-21 9-21 21v22zm85 0c12 0 21 9 21 21 12 0 22-9 22-21v-22c0-12-10-21-22-21s-21 9-21 21v22z"/><glyph glyph-name="user" unicode="" horiz-adv-x="341" d="M171 192c-47 0-86 38-86 85s39 86 86 86 85-39 85-86-38-85-85-85zm0-64c68 0 128-12 170-65V21H0v42c42 53 103 65 171 65z"/><glyph glyph-name="comment" unicode="" horiz-adv-x="384" d="M91 48L43 0v89C16 120 0 160 0 203c0 100 86 181 192 181s192-81 192-181S298 21 192 21c-37 0-72 10-101 27z"/><glyph glyph-name="google-plus" unicode="" d="M136 204h128c1-7 2-14 2-23 0-78-52-133-130-133C61 48 0 109 0 184s61 136 136 136c37 0 67-13 91-35l-37-36c-10 10-28 21-54 21-46 0-84-39-84-86s38-85 84-85c54 0 74 38 77 58h-77v47zm291 0v-39h-39v-39h-39v39h-39v39h39v38h39v-38h39z"/><glyph glyph-name="gamepad" unicode="" d="M235 128h-43c-19-26-50-43-85-43C48 85 0 133 0 192s48 107 107 107h213c59 0 107-48 107-107S379 85 320 85c-35 0-66 17-85 43zm-107 85v22c0 12-9 21-21 21s-22-9-22-21v-22H64c-12 0-21-9-21-21s9-21 21-21h21v-22c0-12 10-21 22-21s21 9 21 21v22h21c12 0 22 9 22 21s-10 21-22 21h-21zm192 0c12 0 21 10 21 22s-9 21-21 21-21-9-21-21 9-22 21-22zm-21-64c12 0 21 10 21 22s-9 21-21 21-22-9-22-21 10-22 22-22zm64 22c12 0 21 9 21 21s-9 21-21 21-22-9-22-21 10-21 22-21z"/><glyph glyph-name="bell" unicode="" horiz-adv-x="341" d="M235 64V43c0-35-29-64-64-64s-64 29-64 64v21H21C9 64 0 73 0 85s9 22 21 22h22v128c0 63 45 116 106 126v23c0 12 10 21 22 21s21-9 21-21v-23c61-10 107-63 107-126V107h21c12 0 21-10 21-22s-9-21-21-21h-85zM85 107h171v128c0 47-38 85-85 85s-86-38-86-85V107zm86-86c12 0 21 10 21 22v21h-43V43c0-12 10-22 22-22z"/><glyph glyph-name="pot" unicode="" d="M384 213V64c0-24-19-43-43-43H85c-24 0-42 19-42 43v149H21c-12 0-21 10-21 22s9 21 21 21h384c12 0 22-9 22-21s-10-22-22-22h-21zm-299 0V64h256v149H85zm107 107v21c0 12 9 22 21 22s22-10 22-22v-21h128c12 0 21-9 21-21s-9-22-21-22H64c-12 0-21 10-21 22s9 21 21 21h128z"/><glyph glyph-name="quote-left" unicode="" horiz-adv-x="384" d="M85 0C38 0 0 38 0 85c0 31 28 131 85 299h43c-28-142-43-213-43-213 47 0 86-39 86-86S132 0 85 0zm214 0c-47 0-86 38-86 85 0 31 29 131 86 299h42l-42-213c47 0 85-39 85-86S346 0 299 0z"/><glyph glyph-name="headphone" unicode="" horiz-adv-x="384" d="M341 171c24 0 43-19 43-43V43c0-24-19-43-43-43s-42 19-42 43v192c0 59-48 106-107 106S85 294 85 235V43C85 19 67 0 43 0S0 19 0 43v85c0 24 19 43 43 43v64c0 82 67 149 149 149s149-67 149-149v-64z"/><glyph glyph-name="drop-left" unicode="" horiz-adv-x="171" d="M171 341V43L0 192z"/><glyph glyph-name="insert-link" unicode="" d="M192 256h-85c-35 0-64-29-64-64s29-64 64-64h85V85h-85C48 85 0 133 0 192s48 107 107 107h85v-43zm43-128h85c35 0 64 29 64 64s-29 64-64 64h-85v43h85c59 0 107-48 107-107S379 85 320 85h-85v43zm-86 85h128c12 0 22-9 22-21s-10-21-22-21H149c-12 0-21 9-21 21s9 21 21 21z"/><glyph glyph-name="brush" unicode="" horiz-adv-x="384" d="M48 106c-4-6-5-13-5-21 0-24 18-42 42-42 8 0 15 1 21 5-2-25-22-45-47-48H0v53c0 28 21 50 48 53zm293 278c23 0 43-22 43-43L107 64l-43 43z"/><glyph glyph-name="rice-cracker" unicode="" d="M213-21C95-21 0 74 0 192s95 213 213 213 214-95 214-213S331-21 213-21zM107 59v112c0 24 18 42 42 42h128c24 0 43-18 43-42V59c39 31 64 79 64 133 0 94-77 171-171 171S43 286 43 192c0-54 25-102 64-133z"/><glyph glyph-name="table" unicode="" d="M43 363h341c24 0 43-19 43-43V64c0-24-19-43-43-43H43C19 21 0 40 0 64v256c0 24 19 43 43 43zm192-214V64h149v85H235zm-192 0V64h149v85H43zm192 128v-85h149v85H235zm-192 0v-85h149v85H43z"/><glyph glyph-name="wordpress-alt" unicode="" d="M382 284c1-6 1-13 1-20 0-19-4-41-15-68L310 26c57 33 95 95 95 166 0 33-8 65-23 92zm-142-2l69-206 19 64c8 27 15 46 15 62 0 24-9 40-16 53-10 16-19 29-19 45 0 18 13 34 32 34 1 0 2-1 3-1-34 31-80 51-130 51-67 0-126-35-160-87h12c20 0 52 3 52 3 10 1 11-15 1-16 0 0-10-1-22-2l70-208 42 126-30 82-20 2c-10 1-9 17 1 16 0 0 31-3 50-3 20 0 51 3 51 3 10 1 12-15 2-16 0 0-10-1-22-2zM213 0c22 0 44 4 64 11-1 1-1 2-1 3l-59 161L159 8c17-5 35-8 54-8zM22 192c0-76 44-142 108-173L38 270c-11-24-16-50-16-78zm191 213c118 0 214-95 214-213S331-21 213-21 0 74 0 192s95 213 213 213z"/><glyph glyph-name="search-minus" unicode="" d="M306 130L420 15c8-8 8-22 0-30s-22-8-30 0L275 100c-29-22-65-36-104-36C77 64 0 141 0 235s77 170 171 170 170-76 170-170c0-39-13-76-35-105zm-135-23c71 0 128 57 128 128s-57 128-128 128S43 306 43 235s57-128 128-128zm-64 106c-12 0-22 10-22 22s10 21 22 21h128c12 0 21-9 21-21s-9-22-21-22H107z"/><glyph glyph-name="pinterest" unicode="" d="M213 405C95 405 0 310 0 192 0 102 57 24 136-7c-2 17-4 44 0 62 4 17 25 106 25 106s-6 12-6 31c0 30 18 52 39 52 18 0 27-14 27-30 0-18-12-46-18-71-5-21 10-39 31-39 38 0 68 40 68 98 0 51-38 87-90 87-61 0-96-46-96-93 0-18 7-37 16-48 2-2 2-4 1-6-2-7-4-22-5-25-1-4-4-5-8-3-27 12-43 52-43 83 0 67 49 129 141 129 74 0 132-53 132-123 0-74-47-133-111-133-22 0-42 12-49 25 0 0-10-41-13-51-5-19-18-42-27-56 20-6 41-9 63-9 118 0 214 95 214 213s-96 213-214 213z"/><glyph glyph-name="cloud" unicode="" d="M229 241l-23-33-35 21c-7 4-14 6-22 6-24 0-42-19-42-43v-43H64c-12 0-21-9-21-21s9-21 21-21h235c47 0 85 38 85 85s-38 85-85 85c-28 0-54-13-70-36zm70 79c71 0 128-57 128-128S370 64 299 64H64C29 64 0 93 0 128s29 64 64 64c0 47 38 85 85 85 16 0 32-4 45-12 23 33 61 55 105 55z"/><glyph glyph-name="git" unicode="" d="M419 211L232 397c-11 11-28 11-39 0l-38-38 49-49c11 4 24 1 33-8s12-23 8-34l47-47c11 4 25 1 34-8 13-13 13-33 0-46s-33-13-46 0c-10 10-12 23-7 35l-44 44V130c3-2 5-3 8-6 13-13 13-33 0-46s-33-13-46 0-13 33 0 46c3 3 7 5 11 7v117c-4 2-8 4-11 7-10 10-12 24-7 36l-48 49L8 212c-11-11-11-28 0-39L194-13c11-11 28-11 39 0l186 185c11 11 11 28 0 39z"/><glyph glyph-name="eye" unicode="" d="M0 192c20 97 108 171 213 171s194-74 214-171C407 95 318 21 213 21S20 95 0 192zM213 85c59 0 107 48 107 107s-48 107-107 107-106-48-106-107S154 85 213 85zm0 43c-35 0-64 29-64 64s29 64 64 64 64-29 64-64-29-64-64-64z"/><glyph glyph-name="usb" unicode="" horiz-adv-x="213" d="M43 363v-86h128v86H43zm85-128v-86h43v86h-43zM43 405h128c24 0 42-18 42-42V21c0-24-18-42-42-42H43C19-21 0-3 0 21v342c0 24 19 42 43 42z"/><glyph glyph-name="bookmark" unicode="" horiz-adv-x="341" d="M299 363H43V48l128 64 128-64v315zM43 405h256c24 0 42-18 42-42V-21L171 64 0-21v384c0 24 19 42 43 42zm170-85h43V192h-43v128z"/><glyph glyph-name="angry" unicode="" d="M213-21C95-21 0 74 0 192s95 213 213 213 214-95 214-213S331-21 213-21zm0 42c94 0 171 77 171 171s-77 171-171 171S43 286 43 192 119 21 213 21zm86 64h-29s-9 57-57 57-57-57-57-57h-28c0 47 38 86 85 86s86-39 86-86zM181 256c5-6 9-14 9-22 0-18-14-32-32-32s-32 14-32 32c0 15 10 27 23 31l-35 13c-6 2-9 8-7 14s8 8 14 6l60-22c6-2 9-8 7-14-1-3-4-5-7-6zm62 0c-3 1-5 3-6 6-2 6 1 12 7 14l60 22c6 2 11 0 13-6s0-12-6-14l-35-13c13-4 23-16 23-31 0-18-14-32-32-32s-32 14-32 32c0 8 3 16 8 22z"/><glyph glyph-name="tired" unicode="" d="M213 21c94 0 171 77 171 171s-77 171-171 171S43 286 43 192 119 21 213 21zm0-42C95-21 0 74 0 192s95 213 213 213 214-95 214-213S331-21 213-21zm-81 256l-25 25 17 17 25-25 26 25 17-17-26-25 26-26-17-17-26 26-25-26-17 17zm128 0l-25 25 17 17 25-25 26 25 17-17-26-25 26-26-17-17-26 26-25-26-17 17zM213 85c-24 0-42 19-42 43s18 43 42 43 43-19 43-43-19-43-43-43z"/><glyph glyph-name="question" unicode="" d="M213-21C95-21 0 74 0 192s95 213 213 213 214-95 214-213S331-21 213-21zm0 42c94 0 171 77 171 171s-77 171-171 171S43 286 43 192 119 21 213 21zm-21 86h43V64h-43v43zm0 42c0 35 64 67 64 86 0 23-20 42-43 42s-42-19-42-42h-43c0 47 39 85 86 85s85-38 85-85c0-43-64-65-64-86h-43z"/><glyph glyph-name="align-right" unicode="" horiz-adv-x="299" d="M299 0c0-12-10-21-22-21s-21 9-21 21v384c0 12 9 21 21 21s22-9 22-21V0zM171 341c24 0 42-18 42-42s-18-43-42-43H43c-24 0-43 19-43 43s19 42 43 42h128zm0-149c24 0 42-19 42-43s-18-42-42-42H85c-24 0-42 18-42 42s18 43 42 43h86z"/><glyph glyph-name="quote-right" unicode="" horiz-adv-x="384" d="M299 213c-47 0-86 39-86 86s39 85 86 85 85-38 85-85c0-31-28-131-85-299h-43c28 142 43 213 43 213zm-214 0c-47 0-85 39-85 86s38 85 85 85 86-38 86-85c0-31-29-131-86-299H43z"/><glyph glyph-name="list-order" unicode="" horiz-adv-x="363" d="M128 363h213c12 0 22-10 22-22s-10-21-22-21H128c-12 0-21 9-21 21s9 22 21 22zm0-150h213c12 0 22-9 22-21s-10-21-22-21H128c-12 0-21 9-21 21s9 21 21 21zm0-149h213c12 0 22-9 22-21s-10-22-22-22H128c-12 0-21 10-21 22s9 21 21 21zM11 363c-6 0-11 4-11 10s5 11 11 11h21c6 0 11-5 11-11v-64c0-6-5-10-11-10s-11 4-11 10v53zm0-128h42c6 0 11-5 11-11v-11l-36-42h25c6 0 11-5 11-11s-5-11-11-11H11c-6 0-11 5-11 11v11l36 42H11c-6 0-11 5-11 11s5 11 11 11zM53 0H11C5 0 0 5 0 11s5 10 11 10h32v11H11C5 32 0 37 0 43s5 10 11 10h32v11H11C5 64 0 69 0 75s5 10 11 10h42c6 0 11-4 11-10V11c0-6-5-11-11-11z"/><glyph glyph-name="beer" unicode="" horiz-adv-x="384" d="M299 107V43c0-23-20-43-43-43H43C20 0 0 20 0 43v298c0 24 19 43 43 43h213c24 0 43-19 43-43v-42h42c24 0 43-19 43-43V149c0-24-19-42-43-42h-42zM43 341v-64h213v64H43zm0-106V43h213v192H43zm85-128c0-12-9-22-21-22s-22 10-22 22v64c0 12 10 21 22 21s21-9 21-21v-64zm85 0c0-12-9-22-21-22s-21 10-21 22v64c0 12 9 21 21 21s21-9 21-21v-64zm86 149V149h42v107h-42z"/><glyph glyph-name="camera" unicode="" horiz-adv-x="384" d="M43 0C19 0 0 19 0 43v298c0 24 19 43 43 43h298c24 0 43-19 43-43V43c0-24-19-43-43-43H43zm256 341v-42h42v42h-42zM192 85c59 0 107 48 107 107s-48 107-107 107S85 251 85 192 133 85 192 85zm0 43c-35 0-64 29-64 64s29 64 64 64 64-29 64-64-29-64-64-64z"/><glyph glyph-name="music" unicode="" horiz-adv-x="341" d="M341 363V85c0-35-29-64-64-64s-64 29-64 64 29 64 64 64c7 0 15-1 22-3v174H128V43c0-35-29-64-64-64S0 8 0 43s29 64 64 64c7 0 14-2 21-4v260c0 24 19 42 43 42h171c24 0 42-18 42-42z"/><glyph glyph-name="eraser" unicode="" horiz-adv-x="256" d="M256 363V21c0-24-19-42-43-42H43C19-21 0-3 0 21v342c0 24 19 42 43 42h170c24 0 43-18 43-42zm-213 0v-86h170v86H43z"/><glyph glyph-name="codepen" unicode="" d="M427 127v-2l-1-1v-3l-1-1v-1l-1-1v-1l-1-1-1-1-1-1v-1h-1l-1-1L224-18c-3-2-7-3-11-3s-7 1-10 3L8 112l-1 1H6l-1 1-1 1v1l-1 1-1 1v1l-1 1v2c0 1-1 1-1 2v136c0 1 1 1 1 2v2l1 1v1l1 1 1 1v1l1 1 1 1h1l1 1 195 130c6 4 15 4 21 0l195-130 1-1h1v-1l1-1 1-1 1-1v-1l1-1v-1l1-1v-3l1-1V127zM37 223v-62l46 31zm158 44v86L51 257l65-43zm180-10l-143 96v-86l79-53zM51 127l144-96v86l-79 53zm181-10V31l143 96-64 43zm-19 118l-65-43 65-43 65 43zm177-74v62l-46-31z"/><glyph glyph-name="forward" unicode="" horiz-adv-x="341" d="M171 192v93c0 2 0 5 1 7 3 7 11 9 17 5l146-93c2-1 4-3 5-5 3-7 1-15-5-19L189 87c-2-1-4-2-6-2-7 0-12 6-12 14v93c0-5-3-9-7-12L18 87c-2-1-4-2-6-2-7 0-12 6-12 14v186c0 2 1 5 2 7 3 7 10 9 16 5l146-93c2-1 4-3 5-5s2-5 2-7z"/><glyph glyph-name="link-external" unicode="" horiz-adv-x="341" d="M43 277h106v-42H43V64h170v107h43V64c0-24-19-43-43-43H43C19 21 0 40 0 64v171c0 24 19 42 43 42zm226 43h-98v43h170V192h-42v97L185 175l-30 31z"/><glyph glyph-name="feather" unicode="" horiz-adv-x="341" d="M43 67V0c0-12-10-21-22-21S0-12 0 0v64c0 189 152 341 341 341C341 231 211 88 43 67zm3 43c128 20 229 121 249 249C167 339 66 238 46 110z"/><glyph glyph-name="megaphone" unicode="" d="M43 277l1-45 329 87c4 1 7 1 11 1 24 0 43-19 43-43V107c0-4-1-7-2-11-6-23-29-37-52-31L43 152v-45c0-12-10-22-22-22S0 95 0 107v170c0 12 9 22 21 22s22-10 22-22zm42-78v-14l299-78v170z"/><glyph glyph-name="twitter" unicode="" d="M134 16c161 0 249 133 249 249v11c17 12 32 28 44 46-16-7-33-12-51-14 18 11 32 28 39 48-17-10-36-17-56-21-16 17-39 28-64 28-48 0-87-40-87-88 0-7 1-14 2-20-73 4-137 39-180 92-8-13-12-28-12-44 0-30 16-57 39-73-14 1-28 5-40 11v-2c0-42 30-77 70-85-7-2-15-4-23-4-6 0-11 1-16 2 11-35 44-60 82-61-30-24-68-37-109-37-7 0-14 0-21 1 39-25 85-39 134-39z"/><glyph glyph-name="shopping-bag" unicode="" horiz-adv-x="384" d="M107 277v64c0 24 18 43 42 43h86c24 0 42-19 42-43v-64h64c24 0 43-18 43-42V43c0-24-19-43-43-43H43C19 0 0 19 0 43v192c0 24 19 42 43 42h64zm-64-42V43h298v192h-64v-64h-42v64h-86v-64h-42v64H43zm106 42h86v64h-86v-64z"/><glyph glyph-name="file-zip" unicode="" horiz-adv-x="341" d="M43 405h213l85-85V21c0-24-18-42-42-42H43C19-21 0-3 0 21v342c0 24 19 42 43 42zm195-42H43V21h256v281h-61v61zm-153 0h43v-43H85v43zm43-43h43v-43h-43v43zm-43-43h43v-42H85v42zm43-42h43v-43h-43v43zm-21-86l21 22 21-22V64h-42v85z"/><glyph glyph-name="artboard" unicode="" horiz-adv-x="384" d="M64 107v170H21c-12 0-21 10-21 22s9 21 21 21h43v43c0 12 9 21 21 21s22-9 22-21v-43h170v43c0 12 10 21 22 21s21-9 21-21v-43h43c12 0 21-9 21-21s-9-22-21-22h-43V107h43c12 0 21-10 21-22s-9-21-21-21h-43V21c0-12-9-21-21-21s-22 9-22 21v43H107V21C107 9 97 0 85 0S64 9 64 21v43H21C9 64 0 73 0 85s9 22 21 22h43zm43 0h170v170H107V107z"/><glyph glyph-name="diamond" unicode="" horiz-adv-x="384" d="M192 67l141 169-52 105H103L51 236zM77 384h230l77-154L192 0 0 230z"/><glyph glyph-name="gear" unicode="" d="M192 23c-31 4-59 16-83 34L78 26 47 56l32 31c-18 24-31 53-35 84H0v42h44c4 31 17 60 35 84l-32 31 31 30 31-31c24 18 52 30 83 34v44h43v-44c31-4 59-16 83-34l31 31 30-30-31-31c18-24 31-53 35-84h44v-42h-44c-4-31-17-60-35-84l31-31-30-30-31 31c-24-18-52-30-83-34v-44h-43v44zm21 62c59 0 107 48 107 107s-48 107-107 107-106-48-106-107S154 85 213 85z"/><glyph glyph-name="smile-heart" unicode="" d="M171-21C77-21 0 55 0 149s77 171 171 171 170-77 170-171S265-21 171-21zm0 42c71 0 128 57 128 128s-57 128-128 128S43 220 43 149 100 21 171 21zm64 107c0-35-29-64-64-64s-64 29-64 64h128zm-107 43c-12 0-21 9-21 21s9 21 21 21 21-9 21-21-9-21-21-21zm85 0c-12 0-21 9-21 21s9 21 21 21 22-9 22-21-10-21-22-21zm142 106c-18 4-72 34-72 88 0 22 18 40 40 40 13 0 25-6 32-16 7 10 19 16 32 16 22 0 40-18 40-40 0-54-54-84-72-88z"/><glyph glyph-name="bus" unicode="" horiz-adv-x="341" d="M256 43H85C85 19 67 0 43 0S0 19 0 43v298c0 24 19 43 43 43h256c24 0 42-19 42-43V43c0-24-18-43-42-43s-43 19-43 43zm21 85c12 0 22 9 22 21s-10 22-22 22-21-10-21-22 9-21 21-21zm-213 0c12 0 21 9 21 21s-9 22-21 22-21-10-21-22 9-21 21-21zM43 341V213h256v128H43z"/><glyph glyph-name="sunny-o" unicode="" d="M213 64c-71 0-128 57-128 128s57 128 128 128 128-57 128-128S284 64 213 64zm0 43c47 0 86 38 86 85s-39 85-86 85-85-38-85-85 38-85 85-85zm-21 298h43v-64h-43v64zM0 213h64v-42H0v42zm363 0h64v-42h-64v42zM192 43h43v-64h-43v64zm163 320l30-31-45-45-31 30zM309 76l31 31 45-46-30-30zM88 107l30-31-45-45-30 30zM43 332l30 31 45-46-30-30z"/><glyph glyph-name="heart-o" unicode="" horiz-adv-x="384" d="M192 21C145 31 0 112 0 256c0 59 48 107 107 107 35 0 66-17 85-43 19 26 50 43 85 43 59 0 107-48 107-107 0-144-145-225-192-235zm0 43c67 20 149 103 149 192 0 35-29 64-64 64-28 0-56-17-85-53-29 36-57 53-85 53-35 0-64-29-64-64 0-89 82-172 149-192z"/><glyph glyph-name="fast-forward" unicode="" horiz-adv-x="384" d="M341 192c0-5-2-9-6-12L189 87c-2-1-4-2-6-2-7 0-12 6-12 14v93c0-5-3-9-7-12L18 87c-2-1-4-2-6-2-7 0-12 6-12 14v186c0 2 1 5 2 7 3 7 10 9 16 5l146-93c2-1 4-3 5-5s2-5 2-7v93c0 2 0 5 1 7 3 7 11 9 17 5l146-93c2-1 4-3 5-5s1-5 1-7v85c0 12 10 22 22 22s21-10 21-22V107c0-12-10-22-21-22s-22 10-22 22v85z"/><glyph glyph-name="phone" unicode="" horiz-adv-x="384" d="M22 256l-1 1C9 290 0 336 0 363c0 12 9 21 21 21h64c24 0 43-19 43-43v-42c0-24-19-43-43-43H67c35-86 103-154 189-189v18c0 24 19 43 43 43h42c24 0 43-19 43-43V21c0-10-11-21-21-21-37 0-74 9-107 21C147 60 61 147 22 256z"/><glyph glyph-name="flag" unicode="" horiz-adv-x="341" d="M43 192V0c0-12-10-21-22-21S0-12 0 0v363c0 23 20 42 43 42h128c23 0 42-19 42-42h86c24 0 42-19 42-43V192c0-24-18-43-42-43H192c-23 0-43 20-43 43H43zm0 171V235h149v-43h107v128H171v43H43z"/><glyph glyph-name="train" unicode="" horiz-adv-x="341" d="M235 44c-21-1-43-1-65-1s-43 0-63 1V0H43v21l15 31C23 62 0 83 0 128v171c0 85 85 85 171 85s170 0 170-85V128c0-45-23-66-58-76l16-31V0h-64v44zM64 107c12 0 21 9 21 21s-9 21-21 21-21-9-21-21 9-21 21-21zm213 0c12 0 22 9 22 21s-10 21-22 21-21-9-21-21 9-21 21-21zM43 320V192h256v128H43z"/><glyph glyph-name="link" unicode="" d="M211 213h5c9 37 43 64 83 64h42c47 0 86-38 86-85s-39-85-86-85h-42c-40 0-74 27-83 64h-5c-9-37-43-64-83-64H85c-47 0-85 38-85 85s38 85 85 85h43c40 0 74-27 83-64zm-46 0c-7 13-21 22-37 22H85c-24 0-42-19-42-43s18-43 42-43h43c16 0 30 9 37 22-9 2-16 11-16 21s7 19 16 21zm91-42c7-13 21-22 37-22h43c24 0 43 19 43 43s-19 43-43 43h-43c-16 0-30-9-37-22 9-2 16-11 16-21s-7-19-16-21z"/><glyph glyph-name="crop" unicode="" horiz-adv-x="384" d="M277 21v43H107c-23 0-43 20-43 43v170H21c-12 0-21 10-21 22s9 21 21 21h43v43c0 12 9 21 21 21s22-9 22-21v-43h192l42 43 22-22-43-42V107h43c12 0 21-10 21-22s-9-21-21-21h-43V21c0-12-9-21-21-21s-22 9-22 21zm0 86v149L128 107h149zM107 277V128l149 149H107z"/><glyph glyph-name="smile" unicode="" d="M213-21C95-21 0 74 0 192s95 213 213 213 214-95 214-213S331-21 213-21zm86 192c0-47-39-86-86-86s-85 39-85 86h171zM213 21c94 0 171 77 171 171s-77 171-171 171S43 286 43 192 119 21 213 21zm-53 192c-18 0-32 14-32 32s14 32 32 32 32-14 32-32-14-32-32-32zm107 0c-18 0-32 14-32 32s14 32 32 32 32-14 32-32-14-32-32-32z"/><glyph glyph-name="prototype" unicode="" horiz-adv-x="384" d="M128 192H80c-7-13-21-21-37-21-24 0-43 18-43 42s19 43 43 43c16 0 30-8 37-21h48v106c0 24 19 43 43 43h170c24 0 43-19 43-43V43c0-24-19-43-43-43H171c-24 0-43 19-43 43v149zm43 0V43h170v298H171V235h48c7 13 21 21 37 21 24 0 43-19 43-43s-19-42-43-42c-16 0-30 8-37 21h-48z"/><glyph glyph-name="elipsis-h" unicode="" horiz-adv-x="341" d="M299 149c-24 0-43 19-43 43s19 43 43 43 42-19 42-43-18-43-42-43zm-256 0c-24 0-43 19-43 43s19 43 43 43 42-19 42-43-18-43-42-43zm128 0c-24 0-43 19-43 43s19 43 43 43 42-19 42-43-18-43-42-43z"/><glyph glyph-name="info" unicode="" d="M213 21c94 0 171 77 171 171s-77 171-171 171S43 286 43 192 119 21 213 21zm0-42C95-21 0 74 0 192s95 213 213 213 214-95 214-213S331-21 213-21zm-21 234h43V85h-43v128zm0 86h43v-43h-43v43z"/><glyph glyph-name="line-chart" unicode="" d="M82 146c2-5 3-12 3-18 0-24-18-43-42-43S0 104 0 128s19 43 43 43c6 0 12-2 17-4l50 50c-2 5-3 12-3 18 0 24 18 42 42 42s43-18 43-42c0-6-2-13-4-18l50-50c5 2 12 4 18 4s13-2 18-4l71 71c-2 5-4 12-4 18 0 24 19 43 43 43s43-19 43-43-19-43-43-43c-6 0-13 2-18 4l-71-71c2-5 4-12 4-18 0-24-19-43-43-43s-43 19-43 43c0 6 2 13 4 18l-50 50c-5-2-12-4-18-4s-12 2-17 4z"/><glyph glyph-name="delete-link" unicode="" d="M192 256h-85c-35 0-64-29-64-64s29-64 64-64h85V85h-85C48 85 0 133 0 192s48 107 107 107h85v-43zm43-128h85c35 0 64 29 64 64s-29 64-64 64h-85v43h85c59 0 107-48 107-107S379 85 320 85h-85v43zm0 85h42c12 0 22-9 22-21s-10-21-22-21h-42v42zm-86 0h43v-42h-43c-12 0-21 9-21 21s9 21 21 21z"/><glyph glyph-name="rage" unicode="" d="M213 21c94 0 171 77 171 171s-77 171-171 171S43 286 43 192 119 21 213 21zm0-42C95-21 0 74 0 192s95 213 213 213 214-95 214-213S331-21 213-21zm86 106h-29s-9 57-57 57-57-57-57-57h-28c0 47 38 86 85 86s86-39 86-86zm-32 128c-18 0-32 14-32 32s46 32 64 32v-32c0-18-14-32-32-32zm-107 0c-18 0-32 14-32 32v32c18 0 64-14 64-32s-14-32-32-32z"/><glyph glyph-name="car" unicode="" horiz-adv-x="384" d="M0 64v107c0 24 19 42 43 42v64c0 47 38 86 85 86h128c47 0 85-39 85-86v-64c24 0 43-18 43-42V64c0-24-19-43-43-43s-42 19-42 43H85c0-24-18-43-42-43S0 40 0 64zm128 256c-24 0-43-19-43-43v-64h214v64c0 24-19 43-43 43H128zM64 128c12 0 21 9 21 21s-9 22-21 22-21-10-21-22 9-21 21-21zm256 0c12 0 21 9 21 21s-9 22-21 22-21-10-21-22 9-21 21-21z"/><glyph glyph-name="trash" unicode="" horiz-adv-x="384" d="M21 341h64v22c0 24 19 42 43 42h128c24 0 43-18 43-42v-22h64c12 0 21-9 21-21s-9-21-21-21h-22V21c0-24-18-42-42-42H85C61-21 43-3 43 21v278H21c-12 0-21 9-21 21s9 21 21 21zm64-42V21h214v278H85zm43 42h128v22H128v-22zm0-85h43V64h-43v192zm85 0h43V64h-43v192z"/><glyph glyph-name="donut" unicode="" d="M213 107c47 0 86 38 86 85s-39 85-86 85-85-38-85-85 38-85 85-85zm0-128C95-21 0 74 0 192s95 213 213 213 214-95 214-213S331-21 213-21zm0 384v-43h43v43h-43zm128-107v-43h43v43h-43zM64 149c12 0 21 10 21 22s-9 21-21 21-21-9-21-21 9-22 21-22zm85 150c12 0 22 9 22 21s-10 21-22 21-21-9-21-21 9-21 21-21zm171-22c12 0 21 10 21 22s-9 21-21 21-21-9-21-21 9-22 21-22zm43-149c12 0 21 9 21 21s-9 22-21 22-22-10-22-22 10-21 22-21zm-86-43V43h43v42h-43zm-85-64c12 0 21 10 21 22s-9 21-21 21-21-9-21-21 9-22 21-22zM85 107V64h43v43H85zM64 277v-42h43v42H64z"/><glyph glyph-name="tag" unicode="" horiz-adv-x="384" d="M42 130l88-88 212 212v88h-88zm182 242c8 8 19 12 30 12h88c23 0 42-19 42-42v-88c0-11-4-22-12-30L160 12c-17-17-42-17-59 0l-89 89c-17 17-17 42 0 59zm53-116c-12 0-21 9-21 21s9 22 21 22 22-10 22-22-10-21-22-21z"/><glyph glyph-name="paper-plane" unicode="" horiz-adv-x="384" d="M230 192L0 215v146c0 13 10 23 23 23 4 0 7 0 10-2l338-170c11-6 17-19 11-30-2-4-7-8-11-10L33 2C22-4 8 2 2 13c-2 3-2 6-2 10v146z"/><glyph glyph-name="audio-player" unicode="" horiz-adv-x="256" d="M256 21c0-24-19-42-43-42H43C19-21 0-3 0 21v342c0 24 19 42 43 42h170c24 0 43-18 43-42V21zm-128 0c47 0 85 39 85 86s-38 85-85 85-85-38-85-85 38-86 85-86zM43 363V235h170v128H43zm85-299c-24 0-43 19-43 43s19 42 43 42 43-18 43-42-19-43-43-43z"/><glyph glyph-name="minus" unicode="" horiz-adv-x="384" d="M21 213h342c12 0 21-9 21-21s-9-21-21-21H21c-12 0-21 9-21 21s9 21 21 21z"/><glyph glyph-name="loop" unicode="" horiz-adv-x="384" d="M83 125c22-37 63-61 109-61 56 0 103 35 121 85h44C338 75 272 21 192 21 134 21 83 51 52 95L0 43v128h128zm218 134c-22 37-63 61-109 61-56 0-103-35-121-85H27c19 74 85 128 165 128 58 0 109-30 140-74l52 52V213H256z"/><glyph glyph-name="browser" unicode="" d="M43 235V64h341v171H43zm0 85v-43h42v43H43zm85 0v-43h256v43H128zm-85 43h341c24 0 43-19 43-43V64c0-24-19-43-43-43H43C19 21 0 40 0 64v256c0 24 19 43 43 43z"/><glyph glyph-name="fork" unicode="" horiz-adv-x="299" d="M85 281v-89h64c35 0 64 29 64 64v25c-25 9-42 32-42 60 0 35 29 64 64 64s64-29 64-64c0-28-18-51-43-60v-25c0-59-48-107-107-107H85v-46c25-9 43-32 43-60 0-35-29-64-64-64S0 8 0 43c0 28 18 51 43 60v178c-25 9-43 32-43 60 0 35 29 64 64 64s64-29 64-64c0-28-18-51-43-60zM64 21c12 0 21 10 21 22s-9 21-21 21-21-9-21-21 9-22 21-22zm171 299c12 0 21 9 21 21s-9 22-21 22-22-10-22-22 10-21 22-21zm-171 0c12 0 21 9 21 21s-9 22-21 22-21-10-21-22 9-21 21-21z"/><glyph glyph-name="layer" unicode="" horiz-adv-x="384" d="M64 277l128-64 128 64-128 64zm138 105l171-87c10-5 14-17 8-27-2-3-4-6-8-8l-171-87c-6-3-14-3-20 0L11 260c-10 5-14 17-8 27 2 3 4 6 8 8l171 87c6 3 14 3 20 0zm0-294c-6-3-14-3-20 0L11 176c-10 5-14 18-8 28 2 3 4 5 8 7 5 3 11 3 16 0l155-80c6-3 14-3 20 0l155 80c5 3 11 3 16 0 10-5 14-17 8-27-2-3-4-6-8-8zm0-85c-6-3-14-3-20 0L11 91c-10 5-14 17-8 27 2 3 4 6 8 8 5 3 11 3 16 0l155-80c6-3 14-3 20 0l155 80c5 3 11 3 16 0 10-5 14-17 8-27-2-3-4-6-8-8z"/><glyph glyph-name="arrow-up" unicode="" horiz-adv-x="341" d="M0 128l171 171 170-171-42-43-128 128L43 85z"/><glyph glyph-name="search-plus" unicode="" d="M306 130L420 15c8-8 8-22 0-30s-22-8-30 0L275 100c-29-22-65-36-104-36C77 64 0 141 0 235s77 170 171 170 170-76 170-170c0-39-13-76-35-105zm-135-23c71 0 128 57 128 128s-57 128-128 128S43 306 43 235s57-128 128-128zm64 106h-43v-42c0-12-9-22-21-22s-22 10-22 22v42h-42c-12 0-22 10-22 22s10 21 22 21h42v43c0 12 10 21 22 21s21-9 21-21v-43h43c12 0 21-9 21-21s-9-22-21-22z"/><glyph glyph-name="pencil" unicode="" horiz-adv-x="384" d="M0 64l256 256 64-64L64 0H0v64zm277 277l43 43 64-64-43-43z"/><glyph glyph-name="lock" unicode="" horiz-adv-x="341" d="M64 235v64c0 59 48 106 107 106s106-47 106-106v-64h22c24 0 42-19 42-43V21c0-24-18-42-42-42H43C19-21 0-3 0 21v171c0 24 19 43 43 43h21zm-21-43V21h256v171H43zm64 43h128v64c0 35-29 64-64 64s-64-29-64-64v-64zm106-86h43V64h-43v85z"/><glyph glyph-name="squid" unicode="" horiz-adv-x="341" d="M85 235l-42 42 128 128 128-128-43-42V85c0-12 9-21 21-21s22 9 22 21 9 22 21 22 21-10 21-22c0-35-29-64-64-64-16 0-31 7-42 17V0c0-12-10-21-22-21s-21 9-21 21v43h-43V0c0-12-9-21-21-21s-21 9-21 21v38C96 28 80 21 64 21 29 21 0 50 0 85c0 12 9 22 21 22s22-10 22-22 9-21 21-21 21 9 21 21v150z"/><glyph glyph-name="share" unicode="" horiz-adv-x="341" d="M231 130c12 12 28 19 46 19 35 0 64-29 64-64s-29-64-64-64-64 29-64 64c0 4 0 8 1 11l-104 52c-12-12-28-20-46-20-35 0-64 29-64 64s29 64 64 64c18 0 34-8 46-20l104 52c-1 3-1 7-1 11 0 35 29 64 64 64s64-29 64-64-29-64-64-64c-18 0-34 7-46 19l-104-52c1-3 1-7 1-10s0-7-1-10zm46 147c12 0 22 10 22 22s-10 21-22 21-21-9-21-21 9-22 21-22zm0-213c12 0 22 9 22 21s-10 22-22 22-21-10-21-22 9-21 21-21zM64 171c12 0 21 9 21 21s-9 21-21 21-21-9-21-21 9-21 21-21z"/><glyph glyph-name="file-word" unicode="" horiz-adv-x="341" d="M43 405h213l85-85V21c0-24-18-42-42-42H43C19-21 0-3 0 21v342c0 24 19 42 43 42zm192-42H43V21h256v278h-64v64zM64 192h43l21-64 21 64h43l21-64 22 64h42L235 64h-43l-21 64-22-64h-42z"/><glyph glyph-name="text-align-left" unicode="" horiz-adv-x="341" d="M320 299H21c-12 0-21 9-21 21s9 21 21 21h299c12 0 21-9 21-21s-9-21-21-21zm-85-86H21c-12 0-21 10-21 22s9 21 21 21h214c12 0 21-9 21-21s-9-22-21-22zm85-85H21c-12 0-21 9-21 21s9 22 21 22h299c12 0 21-10 21-22s-9-21-21-21zm-85-85H21C9 43 0 52 0 64s9 21 21 21h214c12 0 21-9 21-21s-9-21-21-21z"/><glyph glyph-name="wallet" unicode="" d="M384 256c23 0 43-20 43-43v-42c0-23-20-43-43-43V64c0-24-19-43-43-43H43C19 21 0 40 0 64v256c0 24 19 43 43 43h298c24 0 43-19 43-43v-64zm-43 0v64H43V64h298v64h-42c-23 0-43 24-43 43v42c0 24 20 43 43 43h42zm-42-85h42v42h-42v-42z"/><glyph glyph-name="download" unicode="" horiz-adv-x="341" d="M21 43h299c12 0 21-10 21-22s-9-21-21-21H21C9 0 0 9 0 21s9 22 21 22zm171 124l69 69 30-30L171 85 50 206l30 30 69-69v238h43V167z"/><glyph glyph-name="vr" unicode="" d="M277 85l-42 43h-43l-43-43h-42c-24 0-43 19-43 43v128c0 24 19 43 43 43h213c24 0 43-19 43-43V128c0-24-19-43-43-43h-43zm150 64c0-12-10-21-22-21s-21 9-21 21v86c0 12 9 21 21 21s22-9 22-21v-86zm-384 0c0-12-10-21-22-21s-21 9-21 21v86c0 12 9 21 21 21s22-9 22-21v-86z"/><glyph glyph-name="elipsis-v" unicode="" horiz-adv-x="85" d="M43 21C19 21 0 40 0 64s19 43 43 43 42-19 42-43-18-43-42-43zm0 128c-24 0-43 19-43 43s19 43 43 43 42-19 42-43-18-43-42-43zm0 128c-24 0-43 19-43 43s19 43 43 43 42-19 42-43-18-43-42-43z"/><glyph glyph-name="file" unicode="" horiz-adv-x="341" d="M43 405h213l85-85V21c0-24-18-42-42-42H43C19-21 0-3 0 21v342c0 24 19 42 43 42zm195-42H43V21h256v281h-61v61z"/><glyph glyph-name="home" unicode="" horiz-adv-x="384" d="M192 329L43 210V43h106v85h86V43h106v157c0 6-3 12-8 16zm0 55l168-134c15-12 24-31 24-50V43c0-24-19-43-43-43H43C19 0 0 19 0 43v167c0 13 6 25 16 33z"/><glyph glyph-name="mouse" unicode="" horiz-adv-x="256" d="M128 363c-47 0-85-39-85-86V107c0-47 38-86 85-86s85 39 85 86v170c0 47-38 86-85 86zm0 42c71 0 128-57 128-128V107c0-71-57-128-128-128S0 36 0 107v170c0 71 57 128 128 128zm21-170c0-12-9-22-21-22s-21 10-21 22v64c0 12 9 21 21 21s21-9 21-21v-64z"/><glyph glyph-name="check" unicode="" horiz-adv-x="341" d="M43 235l85-86 171 171 42-43L128 64 0 192z"/><glyph glyph-name="feed" unicode="" horiz-adv-x="384" d="M64 43c12 0 21 9 21 21s-9 21-21 21-21-9-21-21 9-21 21-21zm0-43C29 0 0 29 0 64s29 64 64 64 64-29 64-64S99 0 64 0zm277 0C330 183 183 330 0 341v43c212 0 384-172 384-384h-43zM234 0C224 124 124 224 0 234v43c153 0 277-124 277-277h-43z"/><glyph glyph-name="smile-plus" unicode="" d="M171-21C77-21 0 55 0 149s77 171 171 171 170-77 170-171S265-21 171-21zm0 42c71 0 128 57 128 128s-57 128-128 128S43 220 43 149 100 21 171 21zm64 107c0-35-29-64-64-64s-64 29-64 64h128zm-107 43c-12 0-21 9-21 21s9 21 21 21 21-9 21-21-9-21-21-21zm85 0c-12 0-21 9-21 21s9 21 21 21 22-9 22-21-10-21-22-21zm171 192h21c12 0 22-10 22-22s-10-21-22-21h-21v-21c0-12-9-22-21-22s-22 10-22 22v21h-21c-12 0-21 9-21 21s9 22 21 22h21v21c0 12 10 21 22 21s21-9 21-21v-21z"/><glyph glyph-name="text-align-justify" unicode="" horiz-adv-x="341" d="M320 299H21c-12 0-21 9-21 21s9 21 21 21h299c12 0 21-9 21-21s-9-21-21-21zm0-86H21c-12 0-21 10-21 22s9 21 21 21h299c12 0 21-9 21-21s-9-22-21-22zm0-85H21c-12 0-21 9-21 21s9 22 21 22h299c12 0 21-10 21-22s-9-21-21-21zm0-85H21C9 43 0 52 0 64s9 21 21 21h299c12 0 21-9 21-21s-9-21-21-21z"/><glyph glyph-name="book" unicode="" d="M235 107l149 1v212H274l-39-39V107zm-43 174l-39 38-110 1V108l149-1v174zm-21 81l42-42 43 43h128c24 0 43-19 43-43V108c0-23-20-43-43-43l-128-1-43-43-42 43-129 1C19 65 0 85 0 108v212c0 24 19 43 43 43 0 0 43 0 128-1z"/><glyph glyph-name="speaker" unicode="" horiz-adv-x="256" d="M256 21c0-24-19-42-43-42H43C19-21 0-3 0 21v342c0 24 19 42 43 42h170c24 0 43-18 43-42V21zM128 192c47 0 85 38 85 85s-38 86-85 86-85-39-85-86 38-85 85-85zm0-171c24 0 43 19 43 43s-19 43-43 43-43-19-43-43 19-43 43-43zm0 214c-24 0-43 18-43 42s19 43 43 43 43-19 43-43-19-42-43-42z"/><glyph glyph-name="github-alt" unicode="" d="M392 274c22-23 35-54 35-90 0-137-90-168-214-168S0 47 0 184c0 36 13 67 35 90-3 9-15 42 3 88 0 0 28 9 92-35 27 7 55 9 83 9s57-2 84-9c64 43 92 35 92 35 18-46 6-79 3-88zM213 42c88 0 160 4 160 89 0 21-10 40-27 56-29 26-78 12-133 12s-103 14-132-12c-17-16-27-36-27-56 0-85 71-89 159-89zm-67 134c18 0 32-22 32-48s-14-47-32-47-32 21-32 47 14 48 32 48zm134 0c18 0 32-22 32-48s-14-47-32-47-32 21-32 47 14 48 32 48z"/><glyph glyph-name="text-align-right" unicode="" horiz-adv-x="341" d="M320 299H21c-12 0-21 9-21 21s9 21 21 21h299c12 0 21-9 21-21s-9-21-21-21zm0-86H107c-12 0-22 10-22 22s10 21 22 21h213c12 0 21-9 21-21s-9-22-21-22zm0-85H21c-12 0-21 9-21 21s9 22 21 22h299c12 0 21-10 21-22s-9-21-21-21zm0-85H107c-12 0-22 9-22 21s10 21 22 21h213c12 0 21-9 21-21s-9-21-21-21z"/><glyph glyph-name="document" unicode="" horiz-adv-x="341" d="M235 363H43V21h256v278h-64v64zM43 405h213l85-85V21c0-24-18-42-42-42H43C19-21 0-3 0 21v342c0 24 19 42 43 42zm42-192h171v-42H85v42zm0-85h171V85H85v43z"/><glyph glyph-name="target" unicode="" d="M383 171C373 94 312 33 235 23v-44h-43v44C115 33 54 94 44 171H0v42h44c10 77 71 138 148 148v44h43v-44c77-10 138-71 148-148h44v-42h-44zM213 64c71 0 128 57 128 128s-57 128-128 128S85 263 85 192 142 64 213 64zm0 64c-35 0-64 29-64 64s29 64 64 64 64-29 64-64-29-64-64-64z"/><glyph glyph-name="file-audio" unicode="" horiz-adv-x="341" d="M43 405h213l85-85V21c0-24-18-42-42-42H43C19-21 0-3 0 21v342c0 24 19 42 43 42zm195-42H43V21h256v281h-61v61zm-3-215v65h-86V96c0-18-14-32-32-32S85 78 85 96s14 32 32 32c4 0 8-1 11-2v109c0 12 9 21 21 21h86c12 0 21-9 21-21V117c0-18-14-32-32-32s-32 14-32 32 14 32 32 32c4 0 8 0 11-1z"/><glyph glyph-name="pizza" unicode="" d="M213-21C95-21 0 74 0 192s95 213 213 213 214-95 214-213S331-21 213-21zm0 42c94 0 171 77 171 171s-77 171-171 171S43 286 43 192 119 21 213 21zM107 128h42V85zm213 0l-43-43v43h43zM149 299v-43h-42zm128 0l43-43h-43v43zm-53-43c-18 0-32 14-32 32s14 32 32 32 32-14 32-32-14-32-32-32zm-107-85c-18 0-32 14-32 32s14 32 32 32 32-14 32-32-14-32-32-32zm192-22c-18 0-32 14-32 32s14 32 32 32 32-14 32-32-14-32-32-32zm-96 22c-12 0-21 9-21 21s9 21 21 21 22-9 22-21-10-21-22-21zM203 64c-18 0-32 14-32 32s14 32 32 32 32-14 32-32-14-32-32-32z"/><glyph glyph-name="map" unicode="" horiz-adv-x="384" d="M128 85l128-41v254l-128 43V85zM0 341l128 43 128-43 128 43V43L256 0 128 43 0 0v341z"/><glyph glyph-name="play" unicode="" horiz-adv-x="256" d="M0 322c0 3 0 6 2 9 5 9 16 13 25 8l220-130c3-2 5-5 7-8 5-9 2-21-7-26L27 45c-3-2-6-2-9-2C8 43 0 51 0 62v260z"/><glyph glyph-name="star" unicode="" horiz-adv-x="405" d="M203 66L77 0l24 139L0 237l140 21 63 126 62-126 140-21-101-98L328 0z"/><glyph glyph-name="users" unicode="" d="M128 171c-35 0-64 29-64 64s29 64 64 64 64-29 64-64-29-64-64-64zm171 0c-35 0-64 29-64 64s29 64 64 64 64-29 64-64-29-64-64-64zm-171-43c51 0 97-23 128-58V43H0v27c31 35 77 58 128 58zm171-85v43l-11 12c-8 9-17 18-27 26 12 3 25 4 38 4 51 0 97-23 128-58V43H299z"/><glyph glyph-name="cocktail" unicode="" horiz-adv-x="341" d="M192 43h64c12 0 21-10 21-22s-9-21-21-21H85C73 0 64 9 64 21s9 22 21 22h64v144L17 286c-11 8-17 21-17 34v21c0 24 19 43 43 43h256c24 0 42-19 42-43v-21c0-13-6-26-17-34l-132-99V43zM43 341v-21l128-85 128 85v21H43z"/><glyph glyph-name="watch" unicode="" horiz-adv-x="256" d="M192 303c38-22 64-64 64-111s-26-89-64-111V21c0-24-19-42-43-42h-42C83-21 64-3 64 21v60C26 103 0 145 0 192s26 89 64 111v60c0 24 19 42 43 42h42c24 0 43-18 43-42v-60zm-64-196c47 0 85 38 85 85s-38 85-85 85-85-38-85-85 38-85 85-85zm43 106c12 0 21-9 21-21s-9-21-21-21h-22c-23 0-42 19-42 42v22c0 12 9 21 21 21s21-9 21-21v-22h22z"/><glyph glyph-name="compress" unicode="" horiz-adv-x="299" d="M277 192H149v128l43-43 64 64 43-42-64-64zm-256 0h128V64l-42 43-64-64L0 85l64 64z"/><glyph glyph-name="check-verified" unicode="" d="M48 149h-5c-24 0-43 19-43 43s19 43 43 43h5c4 16 10 30 18 44l-4 4c-17 17-17 43 0 60s44 17 61 0l4-4c14 8 28 14 44 18v6c0 24 18 42 42 42s43-18 43-42v-6c16-4 30-10 44-18l4 4c17 17 43 17 60 0s17-43 0-60l-4-4c8-14 15-28 19-44h5c24 0 43-19 43-43s-19-43-43-43h-5c-4-16-11-30-19-44l4-4c17-17 17-43 0-60s-43-17-60 0l-4 4c-14-8-28-14-44-18v-6c0-24-19-42-43-42s-42 18-42 42v6c-16 4-30 10-44 18l-4-4c-17-17-44-17-61 0s-17 43 0 60l4 4c-8 14-14 28-18 44zm101 86l-42-43 85-85 128 128-43 42-85-85z"/><glyph glyph-name="frowing" unicode="" d="M213 21c94 0 171 77 171 171s-77 171-171 171S43 286 43 192 119 21 213 21zm0-42C95-21 0 74 0 192s95 213 213 213 214-95 214-213S331-21 213-21zm86 106H128c0 47 38 86 85 86s86-39 86-86zm-32 128c-18 0-32 14-32 32s14 32 32 32 32-14 32-32-14-32-32-32zm-107 0c-18 0-32 14-32 32s14 32 32 32 32-14 32-32-14-32-32-32z"/><glyph glyph-name="kitchen-cooker" unicode="" d="M48 21h-5C19 21 0 40 0 64v256c0 24 19 43 43 43h341c24 0 43-19 43-43V64c0-24-19-43-43-43h-6c-7-13-21-21-37-21s-30 8-37 21H122C115 8 101 0 85 0S55 8 48 21zm-5 299V64h341v256H43zm42-128h256v-85H85v85zm0 85h107v-42H85v42zm86-106v-22h85v22h-85zm85 64c-12 0-21 9-21 21s9 21 21 21 21-9 21-21-9-21-21-21zm64 0c-12 0-21 9-21 21s9 21 21 21 21-9 21-21-9-21-21-21z"/><glyph glyph-name="medal" unicode="" horiz-adv-x="299" d="M149-21C67-21 0 46 0 128s67 149 149 149 150-67 150-149S231-21 149-21zm0 42c59 0 107 48 107 107s-48 107-107 107S43 187 43 128 90 21 149 21zm0 256c-12 0-21 10-21 22s9 21 21 21 22-9 22-21-10-22-22-22zM85 405h43v-85c-23 0-43 20-43 43v42zm86 0h42v-42c0-23-19-43-42-43v85z"/><glyph glyph-name="expand" unicode="" horiz-adv-x="341" d="M213 363h128V235l-42 42-86-85-42 43 85 85zM128 21H0v128l43-42 85 85 43-43-86-85z"/><glyph glyph-name="building" unicode="" horiz-adv-x="341" d="M43 405h256c24 0 42-18 42-42V-21H0v384c0 24 19 42 43 42zm0-384h85v86h85V21h86v342H43V21zm149 299h64v-64h-64v64zM85 213h64v-64H85v64zm107 0h64v-64h-64v64zM85 320h64v-64H85v64z"/><glyph glyph-name="github" unicode="" d="M213 405c118 0 214-95 214-213 0-94-62-174-146-202-11-2-14 4-14 10v58c0 20-6 33-14 40 47 5 97 23 97 105 0 23-8 43-22 58 2 5 10 27-2 56 0 0-18 6-59-22-17 5-35 7-53 7s-36-2-53-7c-41 27-59 22-59 22-12-29-4-51-2-56-14-15-22-35-22-58 0-82 50-100 97-105-6-5-12-15-14-29-12-6-43-14-62 18-4 6-16 22-33 22-18 0-6-10 1-14 9-5 20-24 22-30 4-12 17-36 71-26 0-18 1-34 1-39 0-6-4-12-15-10C61 18 0 98 0 192c0 118 95 213 213 213z"/><glyph glyph-name="bug" unicode="" horiz-adv-x="384" d="M64 128H21c-12 0-21 9-21 21s9 22 21 22h43v28c-7-2-15-1-21 5l-31 31c-8 8-8 22 0 30s23 8 31 0l24-24c7 34 28 63 57 81l-26 26c-8 8-8 22 0 30s22 8 30 0l39-39c8 2 16 2 25 2s17 0 25-2l39 39c8 8 22 8 30 0s8-22 0-30l-26-26c29-18 50-47 57-81l24 24c8 8 23 8 31 0s8-22 0-30l-31-31c-6-6-14-7-21-5v-28h43c12 0 21-10 21-22s-9-21-21-21h-43c0-10-2-20-4-30 8 4 18 3 25-4l31-30c8-8 8-22 0-30s-23-8-31 0l-30 30c-2 2-3 5-4 7-21-42-65-71-115-71S98 29 77 71c-1-2-2-5-4-7L43 34c-8-8-23-8-31 0s-8 22 0 30l31 30c7 7 17 8 25 4-2 10-4 20-4 30zm211 107c-9 37-43 64-83 64s-74-27-83-64h166zm0-128H109c9-37 43-64 83-64s74 27 83 64z"/><glyph glyph-name="mobile" unicode="" horiz-adv-x="256" d="M43 405h170c24 0 43-18 43-42V21c0-24-19-42-43-42H43C19-21 0-3 0 21v342c0 24 19 42 43 42zm0-42V43h170v320H43z"/><glyph glyph-name="step-backward" unicode="" horiz-adv-x="384" d="M171 128v213H21c-12 0-21 10-21 22s9 21 21 21h342c12 0 21-9 21-21s-9-22-21-22H213V128h48c3 0 6-1 9-3 7-5 10-14 5-21L205 7c-1-2-2-3-4-4-7-5-17-3-22 4l-70 97c-2 3-2 6-2 9 0 8 7 15 16 15h48zm192 128c12 0 21-9 21-21s-9-22-21-22H256v43h107zm-256 0h21v-43H21c-12 0-21 10-21 22s9 21 21 21h86z"/><glyph glyph-name="frying-pan" unicode="" horiz-adv-x="299" d="M171 58c13-7 21-21 21-37 0-24-19-42-43-42s-42 18-42 42c0 16 8 30 21 37v50C56 118 0 181 0 256c0 82 67 149 149 149s150-67 150-149c0-75-56-138-128-148V58zm-22 91c59 0 107 48 107 107s-48 107-107 107S43 315 43 256s47-107 106-107z"/><glyph glyph-name="mask" unicode="" horiz-adv-x="384" d="M43 384h298c24 0 43-19 43-43V43c0-24-19-43-43-43H43C19 0 0 19 0 43v298c0 24 19 43 43 43zM341 43c0 165-133 298-298 298V43h298z"/><glyph glyph-name="cutlery" unicode="" horiz-adv-x="277" d="M85 171V0c0-12-9-21-21-21S43-12 43 0v171c-24 0-43 18-43 42v150c0 24 19 42 43 42V277h42v128c24 0 43-18 43-42V213c0-24-19-42-43-42zm192 192V0c0-12-9-21-21-21s-21 9-21 21v128h-22c-24 0-42 19-42 43v192c0 24 18 42 42 42h22c24 0 42-18 42-42z"/><glyph glyph-name="star-o" unicode="" horiz-adv-x="405" d="M134 78l69 36 68-36-13 76 56 54-77 11-34 69-35-69-76-11 55-54zm69-12L77 0l24 139L0 237l140 21 63 126 62-126 140-21-101-98L328 0z"/><glyph glyph-name="user-plus" unicode="" horiz-adv-x="384" d="M171 128c68 0 128-12 170-65V21H0v42c42 53 103 65 171 65zm0 64c-47 0-86 38-86 85s39 86 86 86 85-39 85-86-38-85-85-85zm170-43c0-12-9-21-21-21s-21 9-21 21v22h-22c-12 0-21 9-21 21s9 21 21 21h22v22c0 12 9 21 21 21s21-9 21-21v-22h22c12 0 21-9 21-21s-9-21-21-21h-22v-22z"/><glyph glyph-name="truck" unicode="" d="M171 64c0-35-29-64-64-64S43 29 43 64C19 64 0 83 0 107v213c0 24 19 43 43 43h234c24 0 43-19 43-43h64c43 0 43-61 43-85V107c0-24-19-43-43-43h-21c0-35-29-64-64-64s-64 29-64 64h-64zM43 320V128h234v192H43zm277-43v-85h64v85h-64zM299 43c12 0 21 9 21 21s-9 21-21 21-22-9-22-21 10-21 22-21zm-192 0c12 0 21 9 21 21s-9 21-21 21-22-9-22-21 10-21 22-21z"/><glyph glyph-name="wrench" unicode="" horiz-adv-x="213" d="M149 201V21c0-24-18-42-42-42S64-3 64 21v180c-38 16-64 54-64 98 0 59 48 106 107 106h8l-51-85 85-43 48 79c11-17 16-36 16-57 0-44-26-82-64-98z"/><glyph glyph-name="step-forward" unicode="" horiz-adv-x="384" d="M213 256V43h150c12 0 21-10 21-22s-9-21-21-21H21C9 0 0 9 0 21s9 22 21 22h150v213h-48c-9 0-16 7-16 15 0 3 0 6 2 9l70 97c5 7 15 9 22 4 2-1 3-2 4-4l70-97c5-7 2-16-5-21-3-2-6-3-9-3h-48zm150-85c12 0 21-10 21-22s-9-21-21-21H256v43h107zm-256 0h21v-43H21c-12 0-21 9-21 21s9 22 21 22h86z"/><glyph glyph-name="backward" unicode="" horiz-adv-x="341" d="M171 192c0 2 0 5 1 7s3 4 5 5l146 93c6 4 14 2 17-5 1-2 1-5 1-7V99c0-8-5-14-12-14-2 0-4 1-6 2l-146 93c-4 3-6 7-6 12V99c0-8-5-14-12-14-2 0-4 1-6 2L6 180c-6 4-7 12-4 19 1 2 2 4 4 5l147 93c6 4 13 2 16-5 1-2 2-5 2-7v-93z"/><glyph glyph-name="file-excel" unicode="" horiz-adv-x="341" d="M43 405h213l85-85V21c0-24-18-42-42-42H43C19-21 0-3 0 21v342c0 24 19 42 43 42zm192-42H43V21h256v278h-64v64zM64 192h64l43-43 42 43h64l-64-64 64-64h-64l-42 43-43-43H64l64 64z"/></font>
</defs>
</svg>
